<svg width="1346" height="433" viewBox="0 0 1346 433" fill="none" xmlns="http://www.w3.org/2000/svg">
<g clip-path="url(#clip0_15_35)">
<path d="M1345 1H372.446C300.879 41 318.138 102.333 347.957 127C372.446 147.257 402.432 217.5 320.47 294C236.078 372.767 322.302 424.5 372.446 437H1345V1Z" fill="#E6E0D4" stroke="#E6E0D4"/>
<path d="M1344 437.162H1019.5H975C975.667 420.328 1006.1 381.662 1122.5 361.662C1238.9 341.662 1261.32 280.5 1264.5 255.662C1275.7 168.062 1322.17 154.495 1344 158.662V437.162Z" fill="url(#paint0_linear_15_35)"/>
<path d="M1346.26 -4H1108.76C1070.36 74.4 1144.23 106.083 1181.76 123C1202.09 132.167 1244.56 131.969 1263.73 113C1311.23 66 1324.76 85.8333 1346.26 81V-4Z" fill="url(#paint1_linear_15_35)"/>
<path d="M1343.5 42.5C1298.33 50.3333 1211.8 92 1227 196C1242.2 300 1157.33 331.667 1113 334.5C1046.67 340.333 921.2 369.4 950 439" stroke="#05697C" stroke-width="5"/>
<path d="M778 435.5H594C599.5 391.5 674.5 369 718 369C751.395 369 771.833 411.833 778 435.5Z" fill="url(#paint2_linear_15_35)"/>
<path d="M385 -0.999992L569 -1.00001C563.5 42.9999 488.5 65.5 445 65.5C411.605 65.5 391.167 22.6667 385 -0.999992Z" fill="url(#paint3_linear_15_35)"/>
<path d="M855.354 1H701.354C698.854 27.6667 708.454 81.5 766.854 83.5C825.254 85.5 850.188 29.3333 855.354 1Z" fill="url(#paint4_linear_15_35)"/>
<path d="M896 1H813.19C811.846 15.2133 817.008 43.9063 848.411 44.9723C879.814 46.0383 893.222 16.1016 896 1Z" fill="url(#paint5_linear_15_35)"/>
<path d="M1159.26 98.5534V86.7334H1164.56V87.6534H1160.5V89.8534H1162.48C1163.04 89.8534 1163.49 89.9401 1163.84 90.1134C1164.2 90.2867 1164.46 90.5601 1164.62 90.9334C1164.79 91.2934 1164.88 91.7667 1164.88 92.3534V95.6134C1164.88 96.1734 1164.83 96.6401 1164.72 97.0134C1164.63 97.3867 1164.48 97.6867 1164.28 97.9134C1164.08 98.1401 1163.82 98.3067 1163.5 98.4134C1163.19 98.5067 1162.82 98.5534 1162.38 98.5534H1159.26ZM1162.14 97.8334C1162.57 97.8334 1162.89 97.7534 1163.1 97.5934C1163.31 97.4201 1163.45 97.1867 1163.52 96.8934C1163.6 96.6001 1163.64 96.2734 1163.64 95.9134V92.5334C1163.64 92.2001 1163.61 91.8934 1163.54 91.6134C1163.47 91.3201 1163.33 91.0867 1163.12 90.9134C1162.91 90.7401 1162.57 90.6534 1162.1 90.6534H1160.5V97.8334H1162.14ZM1167.08 100.893C1166.8 100.893 1166.54 100.873 1166.32 100.833C1166.1 100.793 1165.94 100.76 1165.82 100.733V99.9934C1165.86 100.02 1165.94 100.047 1166.08 100.073C1166.22 100.1 1166.39 100.113 1166.58 100.113C1166.78 100.113 1167 100.08 1167.24 100.013C1167.49 99.9467 1167.7 99.7601 1167.86 99.4534C1167.94 99.3201 1168.02 99.1667 1168.12 98.9934C1168.22 98.8201 1168.25 98.6201 1168.2 98.3934L1165.92 88.6534H1167.2L1169.02 97.2934H1169L1170.76 88.6534H1171.94L1169.78 98.1734C1169.58 99.0934 1169.26 99.7734 1168.84 100.213C1168.41 100.667 1167.82 100.893 1167.08 100.893ZM1172.5 100.693V97.7734H1173.4C1173.58 97.7467 1173.74 97.6801 1173.88 97.5734C1174.04 97.4667 1174.18 97.2934 1174.28 97.0534C1174.4 96.8134 1174.48 96.5001 1174.52 96.1134L1175.26 88.6734H1180.02V97.7734H1181.6V100.693H1180.54V98.7534H1173.58V100.693H1172.5ZM1175.2 97.7734H1178.72V89.5934H1176.4L1175.78 95.7934C1175.73 96.1267 1175.67 96.5001 1175.6 96.9134C1175.54 97.3134 1175.4 97.6001 1175.2 97.7734ZM1185.68 98.7334C1185.02 98.7334 1184.48 98.6601 1184.06 98.5134C1183.65 98.3534 1183.35 98.0667 1183.16 97.6534C1182.98 97.2401 1182.88 96.6401 1182.88 95.8534V90.9134C1182.88 89.9801 1183.09 89.3401 1183.5 88.9934C1183.93 88.6467 1184.63 88.4734 1185.6 88.4734C1186.55 88.4734 1187.23 88.6467 1187.64 88.9934C1188.07 89.3401 1188.28 89.9801 1188.28 90.9134V93.4734H1184.12V96.2734C1184.12 96.9134 1184.22 97.3601 1184.42 97.6134C1184.62 97.8534 1185.03 97.9734 1185.64 97.9734C1186.2 97.9734 1186.58 97.8534 1186.76 97.6134C1186.95 97.3734 1187.04 96.9267 1187.04 96.2734V94.9934H1188.28V95.8334C1188.28 96.6067 1188.19 97.2067 1188 97.6334C1187.82 98.0467 1187.53 98.3334 1187.14 98.4934C1186.77 98.6534 1186.28 98.7334 1185.68 98.7334ZM1184.12 92.8334H1187.04V90.8734C1187.04 90.3134 1186.95 89.9067 1186.76 89.6534C1186.58 89.4001 1186.19 89.2734 1185.6 89.2734C1185.02 89.2734 1184.62 89.4001 1184.42 89.6534C1184.22 89.9067 1184.12 90.3134 1184.12 90.8734V92.8334ZM1189.84 98.5534V88.6534H1191.08V97.6534H1193.64V88.6534H1194.88V97.6534H1197.44V88.6534H1198.68V98.5534H1189.84ZM1200.36 98.5534V88.6934H1201.6V91.7734H1203.58C1204.2 91.7734 1204.68 91.8667 1205.02 92.0534C1205.37 92.2401 1205.62 92.5201 1205.76 92.8934C1205.91 93.2667 1205.98 93.7267 1205.98 94.2734V95.2734C1205.98 95.8334 1205.94 96.3201 1205.86 96.7334C1205.78 97.1467 1205.65 97.4867 1205.46 97.7534C1205.28 98.0201 1205.02 98.2201 1204.7 98.3534C1204.38 98.4867 1203.97 98.5534 1203.46 98.5534H1200.36ZM1201.6 97.8334H1203.22C1203.66 97.8334 1203.99 97.7534 1204.2 97.5934C1204.42 97.4201 1204.56 97.1867 1204.62 96.8934C1204.7 96.6001 1204.74 96.2734 1204.74 95.9134V94.5134C1204.74 94.1667 1204.71 93.8467 1204.64 93.5534C1204.59 93.2601 1204.46 93.0267 1204.24 92.8534C1204.03 92.6667 1203.69 92.5734 1203.22 92.5734H1201.6V97.8334ZM1212.94 98.5534V89.5734H1210.84V88.6534H1216.34V89.5734H1214.2V98.5534H1212.94ZM1220.17 98.6934C1219.56 98.6934 1219.05 98.6134 1218.63 98.4534C1218.23 98.2801 1217.93 97.9801 1217.73 97.5534C1217.55 97.1267 1217.45 96.5401 1217.45 95.7934V91.1734C1217.45 90.2134 1217.66 89.5267 1218.07 89.1134C1218.5 88.7001 1219.2 88.4934 1220.17 88.4934C1221.15 88.4934 1221.84 88.6934 1222.25 89.0934C1222.68 89.4934 1222.89 90.1867 1222.89 91.1734V95.7934C1222.89 96.5401 1222.8 97.1267 1222.61 97.5534C1222.43 97.9667 1222.13 98.2601 1221.73 98.4334C1221.33 98.6067 1220.81 98.6934 1220.17 98.6934ZM1220.17 97.9134C1220.71 97.9134 1221.09 97.7801 1221.31 97.5134C1221.54 97.2467 1221.65 96.7601 1221.65 96.0534V91.1134C1221.65 90.4601 1221.55 89.9934 1221.33 89.7134C1221.12 89.4201 1220.73 89.2734 1220.17 89.2734C1219.65 89.2734 1219.27 89.4134 1219.03 89.6934C1218.81 89.9601 1218.69 90.4334 1218.69 91.1134V96.0534C1218.69 96.7467 1218.81 97.2334 1219.03 97.5134C1219.27 97.7801 1219.65 97.9134 1220.17 97.9134ZM1224.74 100.873V88.6534H1225.9L1225.94 89.5334C1226.06 89.2534 1226.26 89.0134 1226.52 88.8134C1226.79 88.6134 1227.23 88.5134 1227.84 88.5134C1228.47 88.5134 1228.95 88.6201 1229.28 88.8334C1229.62 89.0467 1229.85 89.3401 1229.98 89.7134C1230.12 90.0867 1230.18 90.5201 1230.18 91.0134V95.8934C1230.18 96.4401 1230.12 96.9267 1230 97.3534C1229.88 97.7801 1229.66 98.1134 1229.32 98.3534C1228.99 98.5801 1228.5 98.6934 1227.84 98.6934C1227.34 98.6934 1226.93 98.6134 1226.62 98.4534C1226.33 98.2934 1226.11 98.0934 1225.96 97.8534V100.873H1224.74ZM1227.46 97.9334C1227.84 97.9334 1228.12 97.8801 1228.32 97.7734C1228.52 97.6667 1228.67 97.5267 1228.76 97.3534C1228.86 97.1667 1228.91 96.9667 1228.92 96.7534C1228.94 96.5267 1228.94 96.2867 1228.94 96.0334V91.2134C1228.94 90.9601 1228.94 90.7267 1228.92 90.5134C1228.91 90.2867 1228.86 90.0801 1228.76 89.8934C1228.67 89.7067 1228.52 89.5601 1228.32 89.4534C1228.12 89.3467 1227.84 89.2934 1227.46 89.2934C1227.09 89.2934 1226.8 89.3601 1226.6 89.4934C1226.4 89.6267 1226.26 89.8067 1226.16 90.0334C1226.07 90.2467 1226.02 90.4801 1226 90.7334C1225.99 90.9867 1225.98 91.2267 1225.98 91.4534V96.1734C1225.98 96.4934 1226.01 96.7934 1226.06 97.0734C1226.13 97.3401 1226.26 97.5534 1226.46 97.7134C1226.68 97.8601 1227.01 97.9334 1227.46 97.9334ZM1233.41 98.5534V89.5734H1231.31V88.6534H1236.81V89.5734H1234.67V98.5534H1233.41ZM1239.56 95.5334V93.0934C1239.76 93.0801 1239.96 93.0667 1240.16 93.0534C1240.36 93.0401 1240.55 93.0201 1240.74 92.9934C1241.01 92.9534 1241.28 92.8534 1241.56 92.6934C1241.84 92.5334 1242.07 92.3001 1242.26 91.9934C1242.46 91.6734 1242.56 91.2667 1242.56 90.7734V89.7134C1242.56 89.0734 1242.42 88.5667 1242.14 88.1934C1241.86 87.8067 1241.41 87.6134 1240.8 87.6134C1240.24 87.6134 1239.83 87.7867 1239.58 88.1334C1239.33 88.4667 1239.2 88.9401 1239.2 89.5534V90.4334H1237.94V89.4734C1237.94 87.6067 1238.9 86.6734 1240.82 86.6734C1241.54 86.6734 1242.12 86.7801 1242.56 86.9934C1243.01 87.1934 1243.34 87.5201 1243.54 87.9734C1243.74 88.4134 1243.84 88.9934 1243.84 89.7134V90.7334C1243.84 91.3334 1243.71 91.8467 1243.46 92.2734C1243.21 92.6867 1242.9 93.0001 1242.54 93.2134C1242.19 93.4267 1241.84 93.5601 1241.48 93.6134C1241.35 93.6134 1241.21 93.6201 1241.08 93.6334C1240.95 93.6334 1240.81 93.6334 1240.66 93.6334V95.5334H1239.56ZM1240.08 98.6534C1239.87 98.6534 1239.69 98.5867 1239.54 98.4534C1239.41 98.3067 1239.34 98.1334 1239.34 97.9334C1239.34 97.7201 1239.41 97.5467 1239.54 97.4134C1239.69 97.2667 1239.87 97.1934 1240.08 97.1934C1240.29 97.1934 1240.48 97.2667 1240.64 97.4134C1240.8 97.5467 1240.88 97.7201 1240.88 97.9334C1240.88 98.1334 1240.8 98.3067 1240.64 98.4534C1240.48 98.5867 1240.29 98.6534 1240.08 98.6534Z" fill="#F9E6D6"/>
<path d="M1184.48 56.2971L1205.85 43.9128M1222.25 53.3699V53.3699C1222.25 52.6493 1221.86 51.9796 1221.23 51.6246L1209.95 45.2401" stroke="#F9E6D6"/>
<path d="M1205.85 20V22.9272" stroke="#F9E6D6" stroke-linecap="round"/>
<path d="M1204.39 21.4636H1207.32" stroke="#F9E6D6" stroke-linecap="round"/>
<path d="M1197.95 37.2704V40.7831" stroke="#F9E6D6" stroke-linecap="round"/>
<path d="M1196.19 39.0266H1199.71" stroke="#F9E6D6" stroke-linecap="round"/>
<path d="M1207.95 35.2213H1207.85C1206.75 35.2213 1205.85 36.1167 1205.85 37.2213V47.2718C1205.85 48.3764 1206.75 49.2718 1207.85 49.2718H1207.95C1209.06 49.2718 1209.95 48.3764 1209.95 47.2718V37.2213C1209.95 36.1167 1209.06 35.2213 1207.95 35.2213Z" stroke="#F9E6D6"/>
<path d="M1208.29 26.4124C1208.11 26.2003 1207.79 26.1716 1207.58 26.3484C1207.37 26.5252 1207.34 26.8404 1207.52 27.0526L1208.29 26.4124ZM1208.4 35.2213V34.8119H1207.4V35.2213H1208.4ZM1209.6 32.4674C1210.43 31.1066 1210.36 28.8955 1208.29 26.4124L1207.52 27.0526C1209.41 29.3285 1209.28 31.0705 1208.74 31.9468L1209.6 32.4674ZM1208.4 34.8119C1208.4 34.4693 1208.54 34.1155 1208.78 33.7123C1208.9 33.5129 1209.03 33.3146 1209.18 33.1058C1209.32 32.9017 1209.47 32.6846 1209.6 32.4674L1208.74 31.9468C1208.63 32.1367 1208.5 32.3295 1208.35 32.5411C1208.21 32.7481 1208.06 32.9713 1207.92 33.2022C1207.65 33.6595 1207.4 34.2011 1207.4 34.8119H1208.4Z" fill="#F9E6D6"/>
<path d="M1207.9 26.7325C1206.54 28.3912 1204.92 32.0014 1208.19 33.1723" stroke="#F9E6D6"/>
<path d="M1205.85 36.6849L1209.95 38.7339" stroke="#F9E6D6"/>
<path d="M1205.85 39.9048L1209.95 41.6611" stroke="#F9E6D6"/>
<path d="M1191.22 78.5437C1192.39 80.3 1195.02 80.3 1196.19 80.3C1197.36 80.3 1206.83 80.3 1211.41 80.3C1212.68 80.2024 1214.93 80.3 1215.81 78.5437" stroke="#F9E6D6"/>
<path d="M1184.19 73.5675C1181.85 73.7627 1176.87 74.1529 1176.87 75.9093C1176.87 77.6656 1185.07 78.5437 1190.92 78.5437H1215.81C1220.49 78.5437 1229.56 77.6656 1229.56 75.9093C1229.56 74.1529 1224.29 73.5675 1222.25 73.5675" stroke="#F9E6D6"/>
<path d="M1184.19 57.8434V72.4456C1184.19 73.5502 1185.09 74.4456 1186.19 74.4456H1220.54C1221.64 74.4456 1222.54 73.5502 1222.54 72.4456V54.9594C1222.54 53.7888 1221.54 52.8685 1220.37 52.9664L1186.02 55.8504C1184.99 55.9374 1184.19 56.8037 1184.19 57.8434Z" stroke="#F9E6D6"/>
<path d="M1183.9 66.5423L1222.24 65.0787" stroke="#F9E6D6"/>
<path d="M1184.19 69.4695L1222.25 68.5913" stroke="#F9E6D6"/>
<path d="M1188.88 61.8588V60.5607C1188.88 60.4505 1188.88 60.3403 1188.91 60.2338C1189.07 59.6186 1189.64 58.6389 1190.92 58.6389C1192.21 58.6389 1192.78 59.6186 1192.94 60.2338C1192.97 60.3403 1192.97 60.4505 1192.97 60.5607V62.4442C1192.97 63.1272 1193.38 64.4932 1195.02 64.4932C1196.66 64.4932 1197.07 63.1272 1197.07 62.4442V60.1024C1197.07 59.3219 1197.54 57.7607 1199.41 57.7607C1201.29 57.7607 1201.17 59.2243 1201.17 60.1024V60.6879C1201.17 61.2733 1201.58 62.4442 1203.22 62.4442C1204.86 62.4442 1205.27 61.2733 1205.27 60.6879V59.517C1205.27 58.7364 1205.74 57.1753 1207.61 57.1753C1209.48 57.1753 1209.66 58.6389 1209.66 59.517V61.2733C1209.66 61.8588 1210.01 63.0296 1211.41 63.0296C1212.7 63.0296 1213.27 62.0499 1213.43 61.4347C1213.46 61.3282 1213.46 61.218 1213.46 61.1078V57.7607C1213.46 57.0777 1213.99 55.7117 1216.1 55.7117C1218.21 55.7117 1218.15 56.8825 1218.15 57.7607V58.9316C1218.15 59.8097 1218.5 60.6879 1219.9 60.6879C1221.31 60.6879 1222.25 60.3952 1222.54 57.1753" stroke="#F9E6D6"/>
<path d="M1188.88 61.2733C1188.97 62.0538 1188.64 63.615 1186.53 63.615C1184.43 63.615 1184.19 62.1514 1184.19 61.2733" stroke="#F9E6D6"/>
<path d="M1215.22 28.7816C1215.22 27.1229 1216.16 23.8054 1218.73 24.9763" stroke="#F9E6D6" stroke-linecap="round"/>
<path d="M1218.73 24.9762C1219.32 25.2689 1220.25 26.9081 1218.15 27.6106C1216.04 28.3131 1215.61 24.5859 1215.81 22.9271" stroke="#F9E6D6" stroke-linecap="round"/>
<path d="M1216.98 36.6849C1217.66 36.9776 1218.97 37.1532 1218.73 35.514C1218.5 33.8748 1219.61 33.6601 1220.2 33.7577" stroke="#F9E6D6" stroke-linecap="round"/>
<path d="M1191.51 22.6345C1194.14 24.1957 1197.95 28.7816 1192.68 28.7816" stroke="#F9E6D6" stroke-linecap="round"/>
<path d="M1193.27 28.7816C1192.09 28.7816 1191.16 28.2547 1192.09 26.1471C1193.03 24.0396 1196.49 25.269 1197.66 26.7326L1198.26 27.5405C1198.44 27.7795 1198.57 28.0555 1198.62 28.3484L1198.68 28.6353L1198.75 29.0012L1198.79 29.1729C1198.81 29.302 1198.83 29.4334 1198.83 29.5651L1198.83 29.6279C1198.83 29.8429 1198.79 30.0565 1198.72 30.2605L1198.58 30.6959C1198.55 30.7856 1198.51 30.8741 1198.47 30.9563C1197.87 32.0045 1196.87 32.0253 1196.19 31.1234C1195.49 30.1867 1196.68 29.5622 1197.36 29.3671C1198.63 28.9768 1201.17 29.0743 1201.17 32.587" stroke="#F9E6D6" stroke-linecap="round"/>
<g filter="url(#filter0_d_15_35)">
<path d="M1268 448L1270.5 423C1275.67 407.833 1284.2 373.5 1277 357.5C1269.8 341.5 1276 313.167 1280 301C1270.73 311.333 1254.55 339.2 1264 368" stroke="#68A7AC" stroke-width="3"/>
<path d="M1263.5 366C1267.17 381.167 1269 420 1269 420C1279.67 413.5 1300.7 393.6 1299.5 366C1298 331.5 1275.5 318 1280.5 302" stroke="#68A7AC" stroke-width="3"/>
<path d="M1267.5 447C1266.82 442.911 1264.8 435.377 1260.94 425M1224.5 322C1232 311.5 1240.9 280.6 1216.5 241M1224.5 322C1214.5 322 1212.33 297 1212.5 284.5C1202.9 264.9 1211.17 247.333 1216.5 241M1224.5 322L1216.5 241M1224.5 322C1223.48 327.607 1223.42 333.228 1223.91 338.5M1223.91 338.5C1224.98 349.776 1228.62 359.457 1231 364C1245.9 389.062 1255.35 410.001 1260.94 425M1223.91 338.5L1212.5 322M1212.5 322C1208 311.833 1194.6 290.1 1177 284.5C1171.33 277 1155.5 262.4 1137.5 264M1212.5 322C1191.3 329.2 1174.33 310.333 1168.5 300C1149.7 292.8 1140 273 1137.5 264M1212.5 322C1196.67 310.333 1159.5 282.4 1137.5 264M1260.94 425C1258.7 422.998 1255.78 420.561 1252.5 418.059M1220.5 404C1214 412.167 1195.1 424.1 1171.5 406.5C1162.17 407.333 1141.2 405.7 1132 392.5M1220.5 404C1207 403.631 1176.9 400.815 1164.5 392.5C1152.1 384.185 1137.67 389.036 1132 392.5M1220.5 404C1228.1 401.569 1242.12 410.144 1252.5 418.059M1220.5 404C1216.92 400.417 1209.81 396.343 1201.84 392.5M1132 392.5C1138.24 386.882 1153.75 376.97 1168.5 379.34M1171.5 380C1170.51 379.72 1169.5 379.501 1168.5 379.34M1171.5 380C1187.1 384.4 1176 381.393 1168.5 379.34M1171.5 380C1175.08 381.257 1179.83 383.028 1185 385.112M1252.5 418.059C1248.83 419.912 1239.4 422.506 1231 418.059C1212.67 388.206 1171.6 329.5 1154 333.5M1154 333.5C1152.83 337.667 1156.7 352.8 1181.5 380L1185 385.112M1154 333.5C1169.06 349.702 1199.72 384.185 1201.84 392.5M1185 385.112C1190.44 387.307 1196.35 389.849 1201.84 392.5" stroke="#68A7AC" stroke-width="3"/>
<path d="M1282 336.5V339" stroke="#68A7AC" stroke-width="3" stroke-linecap="round"/>
<path d="M1286 344V346.5" stroke="#68A7AC" stroke-width="3" stroke-linecap="round"/>
<path d="M1282 353V355.5" stroke="#68A7AC" stroke-width="3" stroke-linecap="round"/>
<path d="M1288 359V361.5" stroke="#68A7AC" stroke-width="3" stroke-linecap="round"/>
<path d="M1269 354V356.5" stroke="#68A7AC" stroke-width="3" stroke-linecap="round"/>
<path d="M1273 361.5V364" stroke="#68A7AC" stroke-width="3" stroke-linecap="round"/>
<path d="M1269 370.5V373" stroke="#68A7AC" stroke-width="3" stroke-linecap="round"/>
<path d="M1275 376.5V379" stroke="#68A7AC" stroke-width="3" stroke-linecap="round"/>
<path d="M1179 406.796L1181.41 407.443" stroke="#68A7AC" stroke-width="3" stroke-linecap="round"/>
<path d="M1187.28 404.873L1189.69 405.52" stroke="#68A7AC" stroke-width="3" stroke-linecap="round"/>
<path d="M1194.94 411.066L1197.35 411.713" stroke="#68A7AC" stroke-width="3" stroke-linecap="round"/>
<path d="M1202.29 406.823L1204.7 407.47" stroke="#68A7AC" stroke-width="3" stroke-linecap="round"/>
<path d="M1160 384.44L1162.27 385.495" stroke="#68A7AC" stroke-width="3" stroke-linecap="round"/>
<path d="M1168.49 383.978L1170.75 385.033" stroke="#68A7AC" stroke-width="3" stroke-linecap="round"/>
<path d="M1174.96 391.402L1177.23 392.457" stroke="#68A7AC" stroke-width="3" stroke-linecap="round"/>
<path d="M1182.93 388.494L1185.2 389.549" stroke="#68A7AC" stroke-width="3" stroke-linecap="round"/>
</g>
<path d="M1223 265L1223.38 267.471" stroke="#05697C" stroke-width="3" stroke-linecap="round"/>
<path d="M1224 276L1224.38 278.471" stroke="#05697C" stroke-width="3" stroke-linecap="round"/>
<path d="M1228 282L1228.38 284.471" stroke="#05697C" stroke-width="3" stroke-linecap="round"/>
<path d="M1225 291L1225.38 293.471" stroke="#05697C" stroke-width="3" stroke-linecap="round"/>
<g filter="url(#filter1_d_15_35)">
<path d="M360.931 6.70035L370.342 29.9959C372.82 45.8257 381.229 80.1897 395.043 91.0071C408.857 101.825 416.542 129.792 418.658 142.423C422.063 128.963 423.432 96.7678 401.67 75.6666" stroke="#05697C" stroke-width="3"/>
<path d="M403.043 77.2047C392.745 65.4822 373.065 31.9545 373.065 31.9545C366.644 42.6688 357.276 70.0666 371.171 93.9437C388.541 123.79 414.738 125.28 417.75 141.77" stroke="#05697C" stroke-width="3"/>
<path d="M361.839 7.35316C364.344 10.6566 369.63 16.3902 377.877 23.7798M458.029 98.0252C456.272 110.808 462.76 142.303 502.774 166.017M458.029 98.0252C466.883 93.3755 480.425 114.501 486.089 125.645C503.702 138.534 504.551 157.93 502.774 166.017M458.029 98.0252L502.774 166.017M458.029 98.0252C456.325 92.587 453.769 87.5804 450.877 83.1442M450.877 83.1442C444.692 73.6559 436.97 66.7767 432.746 63.8638C407.906 48.6019 389.798 34.461 377.877 23.7798M450.877 83.1442L468.653 92.4457M468.653 92.4457C477.364 99.3541 499.333 112.365 517.519 109.139C526.023 113.144 546.829 118.708 562.021 108.922M468.653 92.4457C484.074 76.214 507.868 85.0281 517.837 91.464C537.829 89.097 555.623 102.116 562.021 108.922M468.653 92.4457C488.095 95.4124 533.988 102.861 562.021 108.922M377.877 23.7798C380.788 24.5119 384.506 25.3119 388.576 26.0011M423.443 23.5686C425.4 13.3161 436.584 -6.03671 465.662 -1.42827C473.537 -6.50577 492.859 -14.8086 507.142 -7.40004M423.443 23.5686C435.566 17.6181 463.524 6.11599 478.368 7.7115C493.213 9.30701 503.736 -1.69807 507.142 -7.40004M423.443 23.5686C417.847 29.2537 401.448 28.1811 388.576 26.0011M423.443 23.5686C428.281 25.0746 436.466 25.3774 445.307 25.0754M507.142 -7.40004C504.228 0.475512 495.111 16.4605 480.946 21.2224M477.983 22.0329C478.994 21.8188 479.982 21.5466 480.946 21.2224M477.983 22.0329C462.126 25.391 473.352 22.8918 480.946 21.2224M477.983 22.0329C474.226 22.5867 469.197 23.2265 463.654 23.7839M388.576 26.0011C390.96 22.6558 398.106 15.973 407.61 16.0043C437.722 33.9093 501.376 66.7883 515.098 55.0636M515.098 55.0636C514.193 50.8322 503.733 39.2321 469.13 26.6826L463.654 23.7839M515.098 55.0636C494.229 47.7233 451.054 31.4492 445.307 25.0754M463.654 23.7839C457.815 24.3712 451.405 24.8671 445.307 25.0754" stroke="#05697C" stroke-width="3"/>
<path d="M400.381 111.924L399.219 109.711" stroke="#05697C" stroke-width="3" stroke-linecap="round"/>
<path d="M393.352 107.144L392.19 104.93" stroke="#05697C" stroke-width="3" stroke-linecap="round"/>
<path d="M392.709 97.3159L391.547 95.1026" stroke="#05697C" stroke-width="3" stroke-linecap="round"/>
<path d="M384.607 94.7938L383.445 92.5805" stroke="#05697C" stroke-width="3" stroke-linecap="round"/>
<path d="M403.753 90.386L402.591 88.1727" stroke="#05697C" stroke-width="3" stroke-linecap="round"/>
<path d="M396.725 85.6059L395.562 83.3926" stroke="#05697C" stroke-width="3" stroke-linecap="round"/>
<path d="M396.081 75.7781L394.919 73.5648" stroke="#05697C" stroke-width="3" stroke-linecap="round"/>
<path d="M387.979 73.256L386.817 71.0427" stroke="#05697C" stroke-width="3" stroke-linecap="round"/>
<path d="M458.884 1.79736L456.445 2.34733" stroke="#05697C" stroke-width="3" stroke-linecap="round"/>
<path d="M452.448 7.3493L450.009 7.89927" stroke="#05697C" stroke-width="3" stroke-linecap="round"/>
<path d="M442.788 5.42719L440.35 5.97715" stroke="#05697C" stroke-width="3" stroke-linecap="round"/>
<path d="M438.255 12.6001L435.817 13.1501" stroke="#05697C" stroke-width="3" stroke-linecap="round"/>
<path d="M486.1 12.7552L483.603 12.8751" stroke="#05697C" stroke-width="3" stroke-linecap="round"/>
<path d="M478.801 17.1103L476.304 17.2302" stroke="#05697C" stroke-width="3" stroke-linecap="round"/>
<path d="M469.619 13.5466L467.122 13.6665" stroke="#05697C" stroke-width="3" stroke-linecap="round"/>
<path d="M463.914 19.8275L461.417 19.9474" stroke="#05697C" stroke-width="3" stroke-linecap="round"/>
</g>
<path d="M542.629 101.034L540.147 100.734" stroke="#05697C" stroke-width="3" stroke-linecap="round"/>
<path d="M534.948 97.1611L532.466 96.8612" stroke="#05697C" stroke-width="3" stroke-linecap="round"/>
<path d="M525.12 97.8046L522.638 97.5046" stroke="#05697C" stroke-width="3" stroke-linecap="round"/>
<path d="M546.394 110.352L543.912 110.052" stroke="#05697C" stroke-width="3" stroke-linecap="round"/>
<path d="M510.49 104.359L508.008 104.059" stroke="#05697C" stroke-width="3" stroke-linecap="round"/>
<path d="M490.057 89.111L487.575 88.811" stroke="#05697C" stroke-width="3" stroke-linecap="round"/>
<path d="M488.498 39.4303L486.242 38.3532" stroke="#05697C" stroke-width="3" stroke-linecap="round"/>
<path d="M478.917 46.3923L476.661 45.3152" stroke="#05697C" stroke-width="3" stroke-linecap="round"/>
<path d="M458.618 37.8513L456.362 36.7743" stroke="#05697C" stroke-width="3" stroke-linecap="round"/>
<path d="M475.922 34.6644L473.583 33.7827" stroke="#05697C" stroke-width="3" stroke-linecap="round"/>
<path d="M1217.94 293.359L1218.32 295.83" stroke="#05697C" stroke-width="3" stroke-linecap="round"/>
<path d="M1218.94 304.359L1219.32 306.83" stroke="#05697C" stroke-width="3" stroke-linecap="round"/>
<path d="M1214 256L1214.38 258.471" stroke="#05697C" stroke-width="3" stroke-linecap="round"/>
<path d="M1212 265L1212.38 267.471" stroke="#05697C" stroke-width="3" stroke-linecap="round"/>
<g filter="url(#filter2_f_15_35)">
<path d="M383 -16.5C353.167 3.16667 291.7 72.3 346.5 125.5C401.3 178.7 366.622 247.535 335.5 276C294.5 313.5 246.2 402.1 383 446.5" stroke="#68A7AC" stroke-width="19"/>
</g>
<path d="M247.5 -9.5C232.833 16 228.6 78.8 329 126C454.5 185 452 262 431.5 305C411 348 365.5 402.5 431.5 447" stroke="#05697C" stroke-width="5"/>
</g>
<defs>
<filter id="filter0_d_15_35" x="1126.01" y="238.447" width="179.037" height="217.702" filterUnits="userSpaceOnUse" color-interpolation-filters="sRGB">
<feFlood flood-opacity="0" result="BackgroundImageFix"/>
<feColorMatrix in="SourceAlpha" type="matrix" values="0 0 0 0 0 0 0 0 0 0 0 0 0 0 0 0 0 0 127 0" result="hardAlpha"/>
<feOffset dy="4"/>
<feGaussianBlur stdDeviation="2"/>
<feComposite in2="hardAlpha" operator="out"/>
<feColorMatrix type="matrix" values="0 0 0 0 0 0 0 0 0 0 0 0 0 0 0 0 0 0 0.25 0"/>
<feBlend mode="normal" in2="BackgroundImageFix" result="effect1_dropShadow_15_35"/>
<feBlend mode="normal" in="SourceGraphic" in2="effect1_dropShadow_15_35" result="shape"/>
</filter>
<filter id="filter1_d_15_35" x="355.541" y="-11.8442" width="212.807" height="188.209" filterUnits="userSpaceOnUse" color-interpolation-filters="sRGB">
<feFlood flood-opacity="0" result="BackgroundImageFix"/>
<feColorMatrix in="SourceAlpha" type="matrix" values="0 0 0 0 0 0 0 0 0 0 0 0 0 0 0 0 0 0 127 0" result="hardAlpha"/>
<feOffset dy="4"/>
<feGaussianBlur stdDeviation="2"/>
<feComposite in2="hardAlpha" operator="out"/>
<feColorMatrix type="matrix" values="0 0 0 0 0 0 0 0 0 0 0 0 0 0 0 0 0 0 0.25 0"/>
<feBlend mode="normal" in2="BackgroundImageFix" result="effect1_dropShadow_15_35"/>
<feBlend mode="normal" in="SourceGraphic" in2="effect1_dropShadow_15_35" result="shape"/>
</filter>
<filter id="filter2_f_15_35" x="279.075" y="-28.4316" width="113.154" height="487.968" filterUnits="userSpaceOnUse" color-interpolation-filters="sRGB">
<feFlood flood-opacity="0" result="BackgroundImageFix"/>
<feBlend mode="normal" in="SourceGraphic" in2="BackgroundImageFix" result="shape"/>
<feGaussianBlur stdDeviation="2" result="effect1_foregroundBlur_15_35"/>
</filter>
<linearGradient id="paint0_linear_15_35" x1="1160" y1="219.5" x2="1160" y2="464.5" gradientUnits="userSpaceOnUse">
<stop stop-color="#68A7AC"/>
<stop offset="1" stop-color="#05697C"/>
</linearGradient>
<linearGradient id="paint1_linear_15_35" x1="1222" y1="-36" x2="1222" y2="129" gradientUnits="userSpaceOnUse">
<stop stop-color="#05697C"/>
<stop offset="1" stop-color="#68A7AC"/>
</linearGradient>
<linearGradient id="paint2_linear_15_35" x1="686.249" y1="383.65" x2="686.249" y2="442.012" gradientUnits="userSpaceOnUse">
<stop stop-color="#68A7AC"/>
<stop offset="1" stop-color="#05697C"/>
</linearGradient>
<linearGradient id="paint3_linear_15_35" x1="476.751" y1="50.8499" x2="476.751" y2="-7.51232" gradientUnits="userSpaceOnUse">
<stop stop-color="#68A7AC"/>
<stop offset="1" stop-color="#05697C"/>
</linearGradient>
<linearGradient id="paint4_linear_15_35" x1="778.386" y1="19.1864" x2="778.386" y2="91.6363" gradientUnits="userSpaceOnUse">
<stop stop-color="#05697C"/>
<stop offset="1" stop-color="#68A7AC"/>
</linearGradient>
<linearGradient id="paint5_linear_15_35" x1="854.612" y1="10.6933" x2="854.612" y2="49.3089" gradientUnits="userSpaceOnUse">
<stop stop-color="#05697C"/>
<stop offset="1" stop-color="#68A7AC"/>
</linearGradient>
<clipPath id="clip0_15_35">
<rect width="1346" height="433" fill="white"/>
</clipPath>
</defs>
</svg>
