<svg width="1346" height="437" viewBox="0 0 1346 437" fill="none" xmlns="http://www.w3.org/2000/svg">
<g clip-path="url(#clip0_16_3)">
<path d="M0 0H973.472C1045.11 40.1835 1027.83 101.798 997.983 126.578C973.472 146.928 943.457 217.493 1025.5 294.344C1109.97 373.473 1023.66 425.443 973.472 438H0V0Z" fill="#E6E0D4" stroke="#F9E6D6"/>
<g filter="url(#filter0_f_16_3)">
<path d="M955 -12C990.962 7.66667 1065.05 76.8 998.998 130C932.941 183.2 974.742 252.035 1012.26 280.5C1061.68 318 1119.9 406.6 955 451" stroke="#68A7AC" stroke-width="19"/>
</g>
<path d="M1086.36 -9C1102.52 16.4721 1107.18 79.2033 996.597 126.352C858.365 185.287 861.118 262.203 883.698 305.156C906.278 348.108 956.394 402.549 883.698 447" stroke="#05697C" stroke-width="5"/>
<path d="M0 438H410.682H467C466.156 421.176 427.64 382.532 280.327 362.544C133.013 342.555 104.633 281.429 100.614 256.605C86.4393 169.056 27.6319 155.497 0 159.661V438Z" fill="url(#paint0_linear_16_3)"/>
<path d="M765 437.5H581C586.5 393.5 661.5 371 705 371C738.395 371 758.833 413.833 765 437.5Z" fill="url(#paint1_linear_16_3)"/>
<path d="M559.354 0H405.354C402.854 26.6667 412.454 80.5 470.854 82.5C529.254 84.5 554.188 28.3333 559.354 0Z" fill="url(#paint2_linear_16_3)"/>
<path d="M431 0H348.19C346.846 14.2133 352.008 42.9063 383.411 43.9723C414.814 45.0383 428.222 15.1016 431 0Z" fill="url(#paint3_linear_16_3)"/>
<path d="M736 8.4564e-06L920 -7.62939e-06C914.5 43.9999 839.5 66.5 796 66.5C762.605 66.5 742.167 23.6667 736 8.4564e-06Z" fill="url(#paint4_linear_16_3)"/>
<g filter="url(#filter1_d_16_3)">
<path d="M35.2977 437.728L39.3121 412.901C37.8953 396.776 38.0258 361.194 49.8828 347.869C61.7398 334.544 62.7362 305.426 61.7523 292.533C68.7891 305.195 78.452 336.772 60.809 361.779" stroke="#68A7AC" stroke-width="3"/>
<path d="M61.869 359.996C53.963 373.548 41.6937 410.447 41.6937 410.447C32.1656 401.073 15.2623 375.762 23.8738 349.507C34.6381 316.688 61.9777 310.231 60.9585 293.351" stroke="#68A7AC" stroke-width="3"/>
<path d="M36.0916 436.91C37.8992 433.167 42.0294 426.491 48.8707 417.615M114.74 328.947C109.618 316.64 108.448 284.261 144.739 253.199M114.74 328.947C125.294 331.861 134.234 308.393 137.384 296.296C152.732 280.199 148.682 260.858 144.739 253.199M114.74 328.947L144.739 253.199M114.74 328.947C114.324 334.649 112.897 340.086 110.969 345.023M110.969 345.023C106.845 355.582 100.429 363.854 96.7026 367.538C74.3125 387.356 58.7595 404.785 48.8707 417.615M110.969 345.023L127.405 332.443M127.405 332.443C134.86 323.954 154.786 306.909 174.852 306.639C182.829 301.061 203.425 291.601 221.997 298.388M127.405 332.443C147.864 345.561 170.792 332.318 179.698 324.057C201.456 322.595 216.963 306.335 221.997 298.388M127.405 332.443C147.22 325.811 193.881 309.714 221.997 298.388M48.8707 417.615C51.7648 416.337 55.4941 414.839 59.6248 413.383M97.1397 409.155C101.827 418.922 118.598 435.932 148.19 425.843C157.819 429.366 180.382 433.9 193.605 423.857M97.1397 409.155C111.486 412.733 144.004 418.789 159.304 414.387C174.604 409.985 188.546 418.866 193.605 423.857M97.1397 409.155C89.7679 404.598 72.6888 408.779 59.6248 413.383M97.1397 409.155C101.874 406.746 110.458 404.889 119.89 403.506M193.605 423.857C188.512 416.623 174.787 402.55 158.584 400.536M155.242 400.298C156.367 400.318 157.481 400.399 158.584 400.536M155.242 400.298C137.607 399.994 150.122 400.33 158.584 400.536M155.242 400.298C151.125 400.465 145.641 400.789 139.634 401.293M59.6248 413.383C63.0017 416.237 72.2676 421.487 82.3165 419.648C109.61 396.213 168.576 351.59 186.087 360.574M186.087 360.574C186.209 364.931 178.101 378.392 144.688 397.385L139.634 401.293M186.087 360.574C165.878 371.803 124.345 396.11 119.89 403.506M139.634 401.293C133.305 401.823 126.396 402.552 119.89 403.506" stroke="#68A7AC" stroke-width="3"/>
<path d="M50.1943 326.17L49.529 328.58" stroke="#68A7AC" stroke-width="3" stroke-linecap="round"/>
<path d="M43.9765 332.234L43.3112 334.644" stroke="#68A7AC" stroke-width="3" stroke-linecap="round"/>
<path d="M45.8033 342.075L45.138 344.485" stroke="#68A7AC" stroke-width="3" stroke-linecap="round"/>
<path d="M37.8739 346.11L37.2086 348.52" stroke="#68A7AC" stroke-width="3" stroke-linecap="round"/>
<path d="M59.2577 346.827L58.5924 349.237" stroke="#68A7AC" stroke-width="3" stroke-linecap="round"/>
<path d="M53.0398 352.891L52.3745 355.3" stroke="#68A7AC" stroke-width="3" stroke-linecap="round"/>
<path d="M54.8667 362.732L54.2014 365.142" stroke="#68A7AC" stroke-width="3" stroke-linecap="round"/>
<path d="M46.9372 366.767L46.2719 369.177" stroke="#68A7AC" stroke-width="3" stroke-linecap="round"/>
<path d="M140.196 423.942L137.475 423.862" stroke="#68A7AC" stroke-width="3" stroke-linecap="round"/>
<path d="M131.969 419.677L129.248 419.597" stroke="#68A7AC" stroke-width="3" stroke-linecap="round"/>
<path d="M122.238 423.415L119.517 423.335" stroke="#68A7AC" stroke-width="3" stroke-linecap="round"/>
<path d="M115.612 417.184L112.891 417.104" stroke="#68A7AC" stroke-width="3" stroke-linecap="round"/>
<path d="M166.198 407.929L163.525 408.285" stroke="#68A7AC" stroke-width="3" stroke-linecap="round"/>
<path d="M157.363 405.011L154.69 405.367" stroke="#68A7AC" stroke-width="3" stroke-linecap="round"/>
<path d="M148.557 410.281L145.884 410.638" stroke="#68A7AC" stroke-width="3" stroke-linecap="round"/>
<path d="M140.917 405.156L138.245 405.512" stroke="#68A7AC" stroke-width="3" stroke-linecap="round"/>
</g>
<path d="M131.492 274.439L130.435 276.71" stroke="#68A7AC" stroke-width="3" stroke-linecap="round"/>
<path d="M127.509 284.751L126.452 287.022" stroke="#68A7AC" stroke-width="3" stroke-linecap="round"/>
<path d="M121.691 289.369L120.633 291.64" stroke="#68A7AC" stroke-width="3" stroke-linecap="round"/>
<path d="M122.462 298.919L121.405 301.19" stroke="#68A7AC" stroke-width="3" stroke-linecap="round"/>
<path d="M129.283 303.249L128.226 305.52" stroke="#68A7AC" stroke-width="3" stroke-linecap="round"/>
<path d="M125.3 313.561L124.242 315.832" stroke="#68A7AC" stroke-width="3" stroke-linecap="round"/>
<path d="M143.386 268.386L142.328 270.657" stroke="#68A7AC" stroke-width="3" stroke-linecap="round"/>
<path d="M143.101 277.644L142.044 279.915" stroke="#68A7AC" stroke-width="3" stroke-linecap="round"/>
<g filter="url(#filter2_d_16_3)">
<path d="M940.537 -19.3864L942.705 5.66637C947.974 20.9506 956.476 55.4758 948.33 71.3034C940.184 87.1309 946.288 115.603 950.358 127.86C940.536 117.312 923.607 89.0729 934.473 60.5012" stroke="#05697C" stroke-width="3"/>
<path d="M933.889 62.4888C938.189 47.4117 941.015 8.63036 941.015 8.63036C952.43 15.3788 974.787 35.7671 972.89 63.3325C970.519 97.7893 945.851 110.759 950.922 126.872" stroke="#05697C" stroke-width="3"/>
<path d="M939.974 -18.3984C939.147 -14.3261 936.802 -6.84118 932.39 3.44267M890.685 105.565C898.584 116.238 907.558 147.339 880.267 186.358M890.685 105.565C879.852 105.33 876.964 130.274 876.874 142.775C866.05 162.145 874.626 179.901 880.267 186.358M890.685 105.565L880.267 186.358M890.685 105.565C889.702 99.9349 889.753 94.3139 890.406 89.0547M890.406 89.0547C891.802 77.8062 895.954 68.2126 898.636 63.7268C915.315 39.02 926.012 18.3075 932.39 3.44267M890.406 89.0547L877.685 105.283M877.685 105.283C872.59 115.342 857.603 136.757 838.414 141.943C832.113 149.308 814.644 163.534 795.178 161.512M877.685 105.283C854.874 97.5883 836.084 116.053 829.541 126.247C809.018 133.005 798.081 152.573 795.178 161.512M877.685 105.283C860.279 116.576 819.41 143.632 795.178 161.512M932.39 3.44267C929.923 5.39172 926.708 7.75944 923.097 10.1846M888.125 23.4901C881.26 15.173 861.042 2.79957 835.094 19.8424C825.001 18.7906 802.251 19.9322 791.998 32.9135M888.125 23.4901C873.492 23.5426 840.821 25.653 827.208 33.6751C813.594 41.6972 798.062 36.5099 791.998 32.9135M888.125 23.4901C896.304 26.0988 911.678 17.8545 923.097 10.1846M888.125 23.4901C884.166 26.988 876.38 30.8944 867.665 34.5502M791.998 32.9135C798.639 38.676 815.221 48.9497 831.257 46.9259M834.521 46.3362C833.438 46.5933 832.348 46.7881 831.257 46.9259M834.521 46.3362C851.517 42.3028 839.426 45.0488 831.257 46.9259M834.521 46.3362C838.431 45.1637 843.615 43.5038 849.257 41.5415M923.097 10.1846C919.165 8.24623 909.001 5.43172 899.805 9.68077C879.297 39.0971 833.537 96.8267 814.556 92.4152M814.556 92.4152C813.383 88.2222 817.899 73.183 845.355 46.5706L849.257 41.5415M814.556 92.4152C831.225 76.57 865.184 42.8138 867.665 34.5502M849.257 41.5415C855.201 39.4745 861.654 37.072 867.665 34.5502" stroke="#05697C" stroke-width="3"/>
<path d="M953.293 92.4156L953.347 89.9162" stroke="#05697C" stroke-width="3" stroke-linecap="round"/>
<path d="M957.789 85.011L957.843 82.5116" stroke="#05697C" stroke-width="3" stroke-linecap="round"/>
<path d="M953.65 75.9196L953.704 73.4201" stroke="#05697C" stroke-width="3" stroke-linecap="round"/>
<path d="M960.28 70.0613L960.334 67.5619" stroke="#05697C" stroke-width="3" stroke-linecap="round"/>
<path d="M939.588 74.615L939.642 72.1156" stroke="#05697C" stroke-width="3" stroke-linecap="round"/>
<path d="M944.083 67.2103L944.138 64.7109" stroke="#05697C" stroke-width="3" stroke-linecap="round"/>
<path d="M939.944 58.1189L939.999 55.6195" stroke="#05697C" stroke-width="3" stroke-linecap="round"/>
<path d="M946.574 52.2606L946.629 49.7612" stroke="#05697C" stroke-width="3" stroke-linecap="round"/>
<path d="M843.226 19.7229L845.856 19.1326" stroke="#05697C" stroke-width="3" stroke-linecap="round"/>
<path d="M852.154 21.8391L854.784 21.2488" stroke="#05697C" stroke-width="3" stroke-linecap="round"/>
<path d="M860.584 15.827L863.215 15.2367" stroke="#05697C" stroke-width="3" stroke-linecap="round"/>
<path d="M868.454 20.2407L871.084 19.6504" stroke="#05697C" stroke-width="3" stroke-linecap="round"/>
<path d="M822.158 41.6282L824.637 40.6266" stroke="#05697C" stroke-width="3" stroke-linecap="round"/>
<path d="M831.343 42.2887L833.822 41.2871" stroke="#05697C" stroke-width="3" stroke-linecap="round"/>
<path d="M838.515 35.0178L840.993 34.0163" stroke="#05697C" stroke-width="3" stroke-linecap="round"/>
<path d="M847.089 38.1116L849.567 37.11" stroke="#05697C" stroke-width="3" stroke-linecap="round"/>
</g>
<path d="M810.15 145.832L812.41 144.461" stroke="#05697C" stroke-width="3" stroke-linecap="round"/>
<path d="M815.718 138.951L817.978 137.58" stroke="#05697C" stroke-width="3" stroke-linecap="round"/>
<path d="M825.555 135.163L827.815 133.792" stroke="#05697C" stroke-width="3" stroke-linecap="round"/>
<path d="M811.017 155.854L813.277 154.483" stroke="#05697C" stroke-width="3" stroke-linecap="round"/>
<path d="M842.91 134.539L845.17 133.168" stroke="#05697C" stroke-width="3" stroke-linecap="round"/>
<path d="M855.324 111.802L857.584 110.431" stroke="#05697C" stroke-width="3" stroke-linecap="round"/>
<path d="M832.76 66.5946L834.425 64.6276" stroke="#05697C" stroke-width="3" stroke-linecap="round"/>
<path d="M845.421 68.5775L847.085 66.6105" stroke="#05697C" stroke-width="3" stroke-linecap="round"/>
<path d="M860.955 51.9095L862.62 49.9425" stroke="#05697C" stroke-width="3" stroke-linecap="round"/>
<path d="M842.64 56.739L844.48 54.91" stroke="#05697C" stroke-width="3" stroke-linecap="round"/>
<path d="M1 0H244.949C284.392 78.4562 208.512 110.161 169.967 127.091C149.081 136.264 105.459 136.067 85.7669 117.084C36.9771 70.0501 23.0838 89.8977 1 85.0609V0Z" fill="url(#paint5_linear_16_3)"/>
<path d="M-1.37744e-05 67C63.4814 74.8235 185.103 116.438 163.74 220.306C142.376 324.175 261.656 355.802 323.966 358.632C417.197 364.458 593.539 393.488 553.061 463" stroke="#05697C" stroke-width="5"/>
<path d="M116.26 89.5533V77.7333H121.56V78.6533H117.5V80.8533H119.48C120.04 80.8533 120.493 80.94 120.84 81.1133C121.2 81.2867 121.46 81.56 121.62 81.9333C121.793 82.2933 121.88 82.7667 121.88 83.3533V86.6133C121.88 87.1733 121.827 87.64 121.72 88.0133C121.627 88.3867 121.48 88.6867 121.28 88.9133C121.08 89.14 120.82 89.3067 120.5 89.4133C120.193 89.5067 119.82 89.5533 119.38 89.5533H116.26ZM119.14 88.8333C119.567 88.8333 119.887 88.7533 120.1 88.5933C120.313 88.42 120.453 88.1867 120.52 87.8933C120.6 87.6 120.64 87.2733 120.64 86.9133V83.5333C120.64 83.2 120.607 82.8933 120.54 82.6133C120.473 82.32 120.333 82.0867 120.12 81.9133C119.907 81.74 119.567 81.6533 119.1 81.6533H117.5V88.8333H119.14ZM124.075 91.8933C123.795 91.8933 123.542 91.8733 123.315 91.8333C123.102 91.7933 122.935 91.76 122.815 91.7333V90.9933C122.855 91.02 122.942 91.0467 123.075 91.0733C123.222 91.1 123.389 91.1133 123.575 91.1133C123.775 91.1133 123.995 91.08 124.235 91.0133C124.489 90.9467 124.695 90.76 124.855 90.4533C124.935 90.32 125.022 90.1667 125.115 89.9933C125.222 89.82 125.249 89.62 125.195 89.3933L122.915 79.6533H124.195L126.015 88.2933H125.995L127.755 79.6533H128.935L126.775 89.1733C126.575 90.0933 126.262 90.7733 125.835 91.2133C125.409 91.6667 124.822 91.8933 124.075 91.8933ZM129.503 91.6933V88.7733H130.403C130.576 88.7467 130.736 88.68 130.883 88.5733C131.043 88.4667 131.176 88.2933 131.283 88.0533C131.403 87.8133 131.483 87.5 131.523 87.1133L132.263 79.6733H137.023V88.7733H138.603V91.6933H137.543V89.7533H130.583V91.6933H129.503ZM132.203 88.7733H135.723V80.5933H133.403L132.783 86.7933C132.729 87.1267 132.669 87.5 132.603 87.9133C132.536 88.3133 132.403 88.6 132.203 88.7733ZM142.683 89.7333C142.016 89.7333 141.476 89.66 141.063 89.5133C140.649 89.3533 140.349 89.0667 140.163 88.6533C139.976 88.24 139.883 87.64 139.883 86.8533V81.9133C139.883 80.98 140.089 80.34 140.503 79.9933C140.929 79.6467 141.629 79.4733 142.603 79.4733C143.549 79.4733 144.229 79.6467 144.643 79.9933C145.069 80.34 145.283 80.98 145.283 81.9133V84.4733H141.123V87.2733C141.123 87.9133 141.223 88.36 141.423 88.6133C141.623 88.8533 142.029 88.9733 142.643 88.9733C143.203 88.9733 143.576 88.8533 143.763 88.6133C143.949 88.3733 144.043 87.9267 144.043 87.2733V85.9933H145.283V86.8333C145.283 87.6067 145.189 88.2067 145.003 88.6333C144.816 89.0467 144.529 89.3333 144.143 89.4933C143.769 89.6533 143.283 89.7333 142.683 89.7333ZM141.123 83.8333H144.043V81.8733C144.043 81.3133 143.949 80.9067 143.763 80.6533C143.576 80.4 143.189 80.2733 142.603 80.2733C142.016 80.2733 141.623 80.4 141.423 80.6533C141.223 80.9067 141.123 81.3133 141.123 81.8733V83.8333ZM146.836 89.5533V79.6533H148.076V88.6533H150.636V79.6533H151.876V88.6533H154.436V79.6533H155.676V89.5533H146.836ZM157.363 89.5533V79.6933H158.603V82.7733H160.583C161.196 82.7733 161.676 82.8667 162.023 83.0533C162.37 83.24 162.616 83.52 162.763 83.8933C162.91 84.2667 162.983 84.7267 162.983 85.2733V86.2733C162.983 86.8333 162.943 87.32 162.863 87.7333C162.783 88.1467 162.65 88.4867 162.463 88.7533C162.276 89.02 162.023 89.22 161.703 89.3533C161.383 89.4867 160.97 89.5533 160.463 89.5533H157.363ZM158.603 88.8333H160.223C160.663 88.8333 160.99 88.7533 161.203 88.5933C161.416 88.42 161.556 88.1867 161.623 87.8933C161.703 87.6 161.743 87.2733 161.743 86.9133V85.5133C161.743 85.1667 161.71 84.8467 161.643 84.5533C161.59 84.26 161.456 84.0267 161.243 83.8533C161.03 83.6667 160.69 83.5733 160.223 83.5733H158.603V88.8333ZM169.94 89.5533V80.5733H167.84V79.6533H173.34V80.5733H171.2V89.5533H169.94ZM177.173 89.6933C176.559 89.6933 176.046 89.6133 175.633 89.4533C175.233 89.28 174.933 88.98 174.733 88.5533C174.546 88.1267 174.453 87.54 174.453 86.7933V82.1733C174.453 81.2133 174.659 80.5267 175.073 80.1133C175.499 79.7 176.199 79.4933 177.173 79.4933C178.146 79.4933 178.839 79.6933 179.253 80.0933C179.679 80.4933 179.893 81.1867 179.893 82.1733V86.7933C179.893 87.54 179.799 88.1267 179.613 88.5533C179.426 88.9667 179.133 89.26 178.733 89.4333C178.333 89.6067 177.813 89.6933 177.173 89.6933ZM177.173 88.9133C177.706 88.9133 178.086 88.78 178.313 88.5133C178.539 88.2467 178.653 87.76 178.653 87.0533V82.1133C178.653 81.46 178.546 80.9933 178.333 80.7133C178.119 80.42 177.733 80.2733 177.173 80.2733C176.653 80.2733 176.273 80.4133 176.033 80.6933C175.806 80.96 175.693 81.4333 175.693 82.1133V87.0533C175.693 87.7467 175.806 88.2333 176.033 88.5133C176.273 88.78 176.653 88.9133 177.173 88.9133ZM181.744 91.8733V79.6533H182.904L182.944 80.5333C183.064 80.2533 183.257 80.0133 183.524 79.8133C183.79 79.6133 184.23 79.5133 184.844 79.5133C185.47 79.5133 185.95 79.62 186.284 79.8333C186.617 80.0467 186.85 80.34 186.984 80.7133C187.117 81.0867 187.184 81.52 187.184 82.0133V86.8933C187.184 87.44 187.124 87.9267 187.004 88.3533C186.884 88.78 186.657 89.1133 186.324 89.3533C185.99 89.58 185.497 89.6933 184.844 89.6933C184.337 89.6933 183.93 89.6133 183.624 89.4533C183.33 89.2933 183.11 89.0933 182.964 88.8533V91.8733H181.744ZM184.464 88.9333C184.837 88.9333 185.124 88.88 185.324 88.7733C185.524 88.6667 185.67 88.5267 185.764 88.3533C185.857 88.1667 185.91 87.9667 185.924 87.7533C185.937 87.5267 185.944 87.2867 185.944 87.0333V82.2133C185.944 81.96 185.937 81.7267 185.924 81.5133C185.91 81.2867 185.857 81.08 185.764 80.8933C185.67 80.7067 185.524 80.56 185.324 80.4533C185.124 80.3467 184.837 80.2933 184.464 80.2933C184.09 80.2933 183.804 80.36 183.604 80.4933C183.404 80.6267 183.257 80.8067 183.164 81.0333C183.07 81.2467 183.017 81.48 183.004 81.7333C182.99 81.9867 182.984 82.2267 182.984 82.4533V87.1733C182.984 87.4933 183.01 87.7933 183.064 88.0733C183.13 88.34 183.264 88.5533 183.464 88.7133C183.677 88.86 184.01 88.9333 184.464 88.9333ZM190.408 89.5533V80.5733H188.308V79.6533H193.808V80.5733H191.668V89.5533H190.408ZM196.562 86.5333V84.0933C196.762 84.08 196.962 84.0667 197.162 84.0533C197.362 84.04 197.555 84.02 197.742 83.9933C198.008 83.9533 198.282 83.8533 198.562 83.6933C198.842 83.5333 199.075 83.3 199.262 82.9933C199.462 82.6733 199.562 82.2667 199.562 81.7733V80.7133C199.562 80.0733 199.422 79.5667 199.142 79.1933C198.862 78.8067 198.415 78.6133 197.802 78.6133C197.242 78.6133 196.835 78.7867 196.582 79.1333C196.328 79.4667 196.202 79.94 196.202 80.5533V81.4333H194.942V80.4733C194.942 78.6067 195.902 77.6733 197.822 77.6733C198.542 77.6733 199.122 77.78 199.562 77.9933C200.015 78.1933 200.342 78.52 200.542 78.9733C200.742 79.4133 200.842 79.9933 200.842 80.7133V81.7333C200.842 82.3333 200.715 82.8467 200.462 83.2733C200.208 83.6867 199.902 84 199.542 84.2133C199.195 84.4267 198.842 84.56 198.482 84.6133C198.348 84.6133 198.215 84.62 198.082 84.6333C197.948 84.6333 197.808 84.6333 197.662 84.6333V86.5333H196.562ZM197.082 89.6533C196.868 89.6533 196.688 89.5867 196.542 89.4533C196.408 89.3067 196.342 89.1333 196.342 88.9333C196.342 88.72 196.408 88.5467 196.542 88.4133C196.688 88.2667 196.868 88.1933 197.082 88.1933C197.295 88.1933 197.482 88.2667 197.642 88.4133C197.802 88.5467 197.882 88.72 197.882 88.9333C197.882 89.1333 197.802 89.3067 197.642 89.4533C197.482 89.5867 197.295 89.6533 197.082 89.6533Z" fill="#F9E6D6"/>
<path d="M141.356 47.2971L162.622 34.9128M178.935 44.3699V44.3699C178.935 43.6508 178.549 42.9794 177.924 42.6239L166.7 36.2401" stroke="#F9E6D6"/>
<path d="M162.622 11V13.9272" stroke="#F9E6D6" stroke-linecap="round"/>
<path d="M161.165 12.4636H164.078" stroke="#F9E6D6" stroke-linecap="round"/>
<path d="M154.756 28.2705V31.7831" stroke="#F9E6D6" stroke-linecap="round"/>
<path d="M153.009 30.0266H156.505" stroke="#F9E6D6" stroke-linecap="round"/>
<path d="M164.7 26.2212H164.622C163.517 26.2212 162.622 27.1166 162.622 28.2212V38.2717C162.622 39.3762 163.517 40.2717 164.622 40.2717H164.7C165.805 40.2717 166.7 39.3762 166.7 38.2717V28.2212C166.7 27.1166 165.805 26.2212 164.7 26.2212Z" stroke="#F9E6D6"/>
<path d="M165.046 17.4132C164.869 17.2007 164.554 17.1713 164.342 17.3476C164.129 17.5238 164.1 17.839 164.276 18.0516L165.046 17.4132ZM165.925 23.2042L165.498 22.9454L165.925 23.2042ZM165.161 26.2213V25.8103H164.161V26.2213H165.161ZM166.353 23.463C167.176 22.1028 167.103 19.8944 165.046 17.4132L164.276 18.0516C166.162 20.3255 166.029 22.0675 165.498 22.9454L166.353 23.463ZM165.161 25.8103C165.161 25.4678 165.3 25.1138 165.539 24.7101C165.657 24.5104 165.791 24.3119 165.933 24.1027C166.072 23.8982 166.221 23.6808 166.353 23.463L165.498 22.9454C165.383 23.1353 165.251 23.3282 165.106 23.54C164.965 23.747 164.814 23.9704 164.678 24.2012C164.407 24.6586 164.161 25.2001 164.161 25.8103H165.161Z" fill="#F9E6D6"/>
<path d="M164.661 17.7324C163.301 19.3912 161.689 23.0014 164.952 24.1722" stroke="#F9E6D6"/>
<path d="M162.622 27.6848L166.7 29.7338" stroke="#F9E6D6"/>
<path d="M162.622 30.9048L166.7 32.6611" stroke="#F9E6D6"/>
<path d="M148.056 69.5437C149.222 71.3 151.843 71.3 153.009 71.3C154.174 71.3 163.593 71.3 168.156 71.3C169.419 71.2024 171.652 71.3 172.526 69.5437" stroke="#F9E6D6"/>
<path d="M141.065 64.5674C138.735 64.7625 133.783 65.1528 133.783 66.9091C133.783 68.6654 141.939 69.5436 147.765 69.5436H172.526C177.187 69.5436 186.218 68.6654 186.218 66.9091C186.218 65.1528 180.974 64.5674 178.935 64.5674" stroke="#F9E6D6"/>
<path d="M141.065 48.8427V63.4456C141.065 64.5502 141.961 65.4456 143.065 65.4456H177.226C178.331 65.4456 179.226 64.5502 179.226 63.4456V45.9603C179.226 44.7894 178.225 43.8689 177.058 43.9674L142.897 46.8498C141.862 46.9372 141.065 47.8033 141.065 48.8427Z" stroke="#F9E6D6"/>
<path d="M140.774 57.5422L178.935 56.0786" stroke="#F9E6D6"/>
<path d="M141.065 60.4695L178.935 59.5913" stroke="#F9E6D6"/>
<path d="M145.726 52.8588V51.5599C145.726 51.4503 145.733 51.3406 145.761 51.2345C145.922 50.6194 146.486 49.6389 147.765 49.6389C149.045 49.6389 149.609 50.6194 149.77 51.2345C149.798 51.3406 149.805 51.4503 149.805 51.5599V53.4442C149.805 54.1272 150.212 55.4932 151.844 55.4932C153.475 55.4932 153.883 54.1272 153.883 53.4442V51.1024C153.883 50.3219 154.349 48.7607 156.213 48.7607C158.078 48.7607 157.961 50.2243 157.961 51.1024V51.6879C157.961 52.2733 158.369 53.4442 160 53.4442C161.632 53.4442 162.039 52.2733 162.039 51.6879V50.517C162.039 49.7364 162.505 48.1753 164.37 48.1753C166.234 48.1753 166.409 49.6389 166.409 50.517V52.2733C166.409 52.8588 166.758 54.0296 168.157 54.0296C169.436 54.0296 170 53.0491 170.161 52.434C170.189 52.3279 170.196 52.2182 170.196 52.1086V48.7607C170.196 48.0777 170.72 46.7117 172.818 46.7117C174.915 46.7117 174.857 47.8825 174.857 48.7607V49.9316C174.857 50.8097 175.206 51.6879 176.605 51.6879C178.003 51.6879 178.935 51.3952 179.226 48.1753" stroke="#F9E6D6"/>
<path d="M145.726 52.2732C145.823 53.0538 145.493 54.6149 143.396 54.6149C141.298 54.6149 141.065 53.1513 141.065 52.2732" stroke="#F9E6D6"/>
<path d="M171.944 19.7815C171.944 18.1228 172.876 14.8053 175.439 15.9762" stroke="#F9E6D6" stroke-linecap="round"/>
<path d="M175.439 15.9763C176.022 16.269 176.954 17.9082 174.857 18.6107C172.759 19.3133 172.332 15.586 172.526 13.9272" stroke="#F9E6D6" stroke-linecap="round"/>
<path d="M173.692 27.685C174.371 27.9777 175.673 28.1534 175.439 26.5141C175.206 24.8749 176.313 24.6603 176.896 24.7578" stroke="#F9E6D6" stroke-linecap="round"/>
<path d="M148.348 13.6345C150.97 15.1957 154.757 19.7816 149.513 19.7816" stroke="#F9E6D6" stroke-linecap="round"/>
<path d="M150.095 19.7817C148.93 19.7817 147.998 19.2548 148.93 17.1472C149.862 15.0396 153.3 16.2691 154.465 17.7326L155.068 18.5411C155.246 18.7797 155.369 19.0551 155.427 19.3471L155.484 19.6353L155.557 20.0012L155.592 20.1739C155.617 20.3024 155.63 20.4331 155.63 20.5642L155.63 20.6294C155.63 20.8435 155.596 21.0561 155.528 21.2593L155.339 21.8307C154.756 23.0016 153.707 23.0601 153.008 22.1234C152.309 21.1867 153.494 20.5623 154.173 20.3671C155.436 19.9768 157.96 20.0744 157.96 23.587" stroke="#F9E6D6" stroke-linecap="round"/>
</g>
<defs>
<filter id="filter0_f_16_3" x="946.442" y="-24.335" width="131.058" height="488.508" filterUnits="userSpaceOnUse" color-interpolation-filters="sRGB">
<feFlood flood-opacity="0" result="BackgroundImageFix"/>
<feBlend mode="normal" in="SourceGraphic" in2="BackgroundImageFix" result="shape"/>
<feGaussianBlur stdDeviation="2" result="effect1_foregroundBlur_16_3"/>
</filter>
<filter id="filter1_d_16_3" x="16.0023" y="250.826" width="212.258" height="195.142" filterUnits="userSpaceOnUse" color-interpolation-filters="sRGB">
<feFlood flood-opacity="0" result="BackgroundImageFix"/>
<feColorMatrix in="SourceAlpha" type="matrix" values="0 0 0 0 0 0 0 0 0 0 0 0 0 0 0 0 0 0 127 0" result="hardAlpha"/>
<feOffset dy="4"/>
<feGaussianBlur stdDeviation="2"/>
<feComposite in2="hardAlpha" operator="out"/>
<feColorMatrix type="matrix" values="0 0 0 0 0 0 0 0 0 0 0 0 0 0 0 0 0 0 0.25 0"/>
<feBlend mode="normal" in2="BackgroundImageFix" result="effect1_dropShadow_16_3"/>
<feBlend mode="normal" in="SourceGraphic" in2="effect1_dropShadow_16_3" result="shape"/>
</filter>
<filter id="filter2_d_16_3" x="785.933" y="-19.5156" width="192.57" height="216.304" filterUnits="userSpaceOnUse" color-interpolation-filters="sRGB">
<feFlood flood-opacity="0" result="BackgroundImageFix"/>
<feColorMatrix in="SourceAlpha" type="matrix" values="0 0 0 0 0 0 0 0 0 0 0 0 0 0 0 0 0 0 127 0" result="hardAlpha"/>
<feOffset dy="4"/>
<feGaussianBlur stdDeviation="2"/>
<feComposite in2="hardAlpha" operator="out"/>
<feColorMatrix type="matrix" values="0 0 0 0 0 0 0 0 0 0 0 0 0 0 0 0 0 0 0.25 0"/>
<feBlend mode="normal" in2="BackgroundImageFix" result="effect1_dropShadow_16_3"/>
<feBlend mode="normal" in="SourceGraphic" in2="effect1_dropShadow_16_3" result="shape"/>
</filter>
<linearGradient id="paint0_linear_16_3" x1="232.867" y1="220.464" x2="232.867" y2="465.322" gradientUnits="userSpaceOnUse">
<stop stop-color="#68A7AC"/>
<stop offset="1" stop-color="#05697C"/>
</linearGradient>
<linearGradient id="paint1_linear_16_3" x1="673.249" y1="385.65" x2="673.249" y2="444.012" gradientUnits="userSpaceOnUse">
<stop stop-color="#68A7AC"/>
<stop offset="1" stop-color="#05697C"/>
</linearGradient>
<linearGradient id="paint2_linear_16_3" x1="482.386" y1="18.1864" x2="482.386" y2="90.6363" gradientUnits="userSpaceOnUse">
<stop stop-color="#68A7AC"/>
<stop offset="1" stop-color="#05697C"/>
</linearGradient>
<linearGradient id="paint3_linear_16_3" x1="389.612" y1="9.6933" x2="389.612" y2="48.3089" gradientUnits="userSpaceOnUse">
<stop stop-color="#68A7AC"/>
<stop offset="1" stop-color="#05697C"/>
</linearGradient>
<linearGradient id="paint4_linear_16_3" x1="827.751" y1="51.8499" x2="827.751" y2="-6.51232" gradientUnits="userSpaceOnUse">
<stop stop-color="#68A7AC"/>
<stop offset="1" stop-color="#05697C"/>
</linearGradient>
<linearGradient id="paint5_linear_16_3" x1="128.154" y1="29.3002" x2="128.154" y2="146.025" gradientUnits="userSpaceOnUse">
<stop stop-color="#68A7AC"/>
<stop offset="1" stop-color="#05697C"/>
</linearGradient>
<clipPath id="clip0_16_3">
<rect width="1346" height="437" fill="white"/>
</clipPath>
</defs>
</svg>
