<svg width="207" height="201" viewBox="0 0 207 201" fill="none" xmlns="http://www.w3.org/2000/svg">
<path d="M13.1853 152.006V196C13.1853 196.552 13.633 197 14.1853 197H192.863C193.416 197 193.863 196.552 193.863 196V152.006M13.1853 152.006C9.75889 152.006 3.14326 150.191 4.09211 142.928C5.02551 135.785 11.6465 131.62 14.9983 130.359C15.1083 130.317 15.2222 130.299 15.3398 130.3L35.7208 130.435M13.1853 152.006C14.9947 152.006 18.9969 150.611 21.2955 147.423C21.7768 146.755 22.8801 146.697 23.3504 147.372C25.6008 150.604 29.3331 154.374 33.3487 154.374C36.2584 154.374 41.1757 154.241 44.4068 147.582C44.7705 146.832 45.8913 146.699 46.4365 147.329C49.2424 150.571 54.5589 154.374 58.2561 154.374C61.2069 154.374 63.7448 153.138 67.6675 147.075C68.073 146.448 69.0031 146.442 69.4284 147.056C71.7136 150.353 75.4581 154.374 79.6054 154.374C81.8476 154.374 85.0082 154.233 90.1556 147.018C90.5859 146.415 91.5096 146.439 91.9258 147.052C94.1643 150.35 98.1409 154.374 103.327 154.374C109.869 154.374 111.396 151.714 114.66 147.004C115.081 146.396 115.997 146.449 116.396 147.072C118.504 150.366 122.318 154.374 127.839 154.374C132.641 154.374 135.833 149.994 137.525 147.3C137.952 146.62 138.959 146.685 139.359 147.381C141.216 150.611 144.762 154.374 149.584 154.374C154.609 154.374 158.215 149.462 160.16 146.842C160.579 146.279 161.411 146.352 161.795 146.938C163.969 150.257 168.129 154.374 172.91 154.374C178.091 154.374 181.964 149.153 184.002 146.605C184.391 146.119 185.11 146.149 185.494 146.64C187.225 148.851 190.1 152.006 193.863 152.006M193.863 152.006C197.158 152.269 203.589 150.822 202.957 142.928C202.331 135.117 196.748 132.072 193.95 131.5C193.891 131.488 193.833 131.482 193.772 131.482L172.91 131.344M35.7208 130.435V86.4888M35.7208 130.435L172.91 131.344M35.7208 86.4888C31.7672 85.6994 26.6276 81.3579 26.6276 75.8323C26.6276 70.362 26.6276 69.1468 35.4509 62.6126C35.6226 62.4854 35.8361 62.4131 36.0498 62.4131H91.4661M35.7208 86.4888C39.7144 86.4888 42.8216 83.2115 44.5372 80.5364C45.0023 79.8112 46.1787 79.8232 46.5964 80.5766C48.3149 83.6759 51.6065 88.0675 56.6747 88.0675C61.7207 88.0675 65.5033 84.1593 67.4962 80.7219C67.9399 79.9566 69.1989 79.9232 69.671 80.6713C71.6228 83.7646 75.4612 88.0675 80.7915 88.0675C86.0454 88.0675 88.8687 83.8306 90.8951 80.2997C91.3016 79.5914 92.3778 79.614 92.8257 80.2968C94.8639 83.404 99.2212 88.0675 104.118 88.0675C108.804 88.0675 112.512 84.3287 114.471 80.9485C114.931 80.1555 116.252 80.149 116.679 80.9603C119.395 86.1245 122.887 88.0675 127.048 88.0675C131.65 88.0675 135.613 84.0671 137.577 80.6011C138.001 79.8516 139.177 79.7771 139.637 80.506C141.591 83.6087 145.115 88.0675 149.584 88.0675C154.164 88.0675 157.945 83.9961 160.004 80.5802C160.451 79.8386 161.64 79.8465 162.096 80.5824C165.409 85.9238 170.542 86.8433 172.91 86.4888M172.91 86.4888C175.018 84.91 180.817 84.1207 180.817 75.8323C180.817 68.8517 173.946 65.0466 169.581 62.5449C169.429 62.4579 169.259 62.4131 169.084 62.4131H112.42M172.91 86.4888V131.344M112.42 62.4131L134.165 42.6789C138.421 38.6697 141.9 32.0225 141.584 25.7076C141.268 19.3926 138.742 13.8046 134.165 9.92025C129.587 6.03586 125.195 4.00001 120.723 4C115.886 3.99999 109.956 4.72694 106.094 9.92025L103.294 13.6472C102.907 14.1627 102.14 14.1823 101.727 13.6874L98.5825 9.92025C94.1413 5.12162 89.2389 4 83.8621 4C76.004 4 70.6131 9.65254 70.425 9.85238C70.419 9.85872 70.4218 9.85566 70.4161 9.86222C70.2341 10.0701 63.6989 17.5962 63.6989 25.7076C63.6989 33.9335 65.6756 36.6963 71.3029 42.6789L91.4661 62.4131M112.42 62.4131H91.4661" stroke="#F9E6D6" stroke-width="7" stroke-linecap="round"/>
</svg>
