<svg width="207" height="201" viewBox="0 0 207 201" fill="none" xmlns="http://www.w3.org/2000/svg">
<path d="M190.944 179.455H202C202.552 179.455 203.003 179.903 202.972 180.455C202.429 190.226 194.002 195.468 189.583 196.952C189.484 196.985 189.384 197 189.279 197H16.3398C16.2036 197 16.0661 196.971 15.9414 196.916C6.0025 192.541 3.85464 184.541 4.00742 180.329C4.02565 179.826 4.45402 179.455 4.95691 179.455H20.6544M190.944 179.455H186.423H20.6544M190.944 179.455V137.476C190.944 137.206 191.053 136.95 191.24 136.754C193.322 134.57 196.972 129.121 196.972 122.432M196.972 122.432C196.972 115.671 192.31 109.272 189.723 106.633C189.541 106.448 189.292 106.348 189.032 106.348H178.889M196.972 122.432C194.46 128.28 186.423 139.977 174.368 139.977C162.97 139.977 151.95 128.214 147.81 123.224C147.451 122.791 146.806 122.735 146.378 123.102C134.834 132.984 128.519 139.977 103.539 139.977C75.8961 139.977 65.1615 129.134 59.0212 123.108C58.6355 122.729 58.0219 122.728 57.6717 123.139C53.4688 128.079 49.832 139.977 32.7108 139.977C23.0661 139.977 13.5444 128.28 10.028 122.432M10.028 122.432C10.028 113.232 16.9008 107.989 20.4739 106.425C20.5946 106.373 20.7222 106.348 20.854 106.348H28.1898M10.028 122.432C10.028 131.013 13.4722 135.331 15.5934 136.741C15.9124 136.953 16.1334 137.296 16.1334 137.679V178.455C16.1334 179.007 16.5811 179.455 17.1334 179.455H20.6544M178.889 106.348V75.6439M178.889 106.348H148.749M178.889 75.6439C181.4 76.1313 186.423 75.3515 186.423 68.3333C186.423 61.4008 181.522 60.5553 178.982 61.0054C178.919 61.0166 178.857 61.0227 178.793 61.0227H163.819M178.889 75.6439H148.749M148.749 75.6439C146.237 75.6439 141.214 74.1818 141.214 68.3333C141.214 62.4848 146.237 61.0227 148.749 61.0227H163.819M148.749 75.6439V106.348M148.749 106.348H118.609M163.819 61.0227V55.1743M163.819 42.0152V55.1743M163.819 55.1743C166.833 54.6869 175.875 55.1743 175.875 42.0152C175.875 32.7267 169.353 21.4414 164.385 17.572C164.052 17.3128 163.593 17.3189 163.27 17.59C159.113 21.0779 151.763 31.9477 151.763 42.0152C151.763 55.1743 159.8 55.1743 163.819 55.1743ZM118.609 106.348V68.3333M118.609 106.348H88.4694M118.609 68.3333C120.618 68.8207 124.637 68.3334 124.637 62.4849C124.637 56.6364 120.618 55.1743 118.609 55.1743H103.539M118.609 68.3333H88.4694M88.4694 68.3333C86.4601 68.8207 82.4414 68.3334 82.4414 62.4849C82.4414 56.6364 86.4601 55.1743 88.4694 55.1743H103.539M88.4694 68.3333V106.348M88.4694 106.348H58.3296M58.3296 106.348V75.6439M58.3296 106.348H28.1898M58.3296 75.6439C60.3389 75.6439 64.3576 74.1818 64.3576 68.3333C64.3576 62.4848 60.3389 61.0227 58.3296 61.0227H43.2597M58.3296 75.6439H28.1898M28.1898 75.6439C25.678 75.6439 20.6544 74.1818 20.6544 68.3333C20.6544 62.4848 25.678 61.0227 28.1898 61.0227H43.2597M28.1898 75.6439V106.348M103.539 55.1743V49.3258M103.539 36.1667V49.3258M103.539 49.3258C108.563 48.8384 118.609 49.3258 118.609 36.1667C118.609 27.2099 109.405 10.8409 104.211 4.75379C103.848 4.32847 103.215 4.31323 102.836 4.72424C97.6368 10.362 88.4694 26.1106 88.4694 36.1667C88.4694 49.3258 98.516 49.3258 103.539 49.3258ZM43.2597 61.0227V55.1743M43.2597 42.0152V55.1743M43.2597 55.1743C47.2783 55.1743 55.3156 55.1743 55.3156 42.0152C55.3156 32.0149 48.0629 18.1444 43.8919 13.4384C43.5456 13.0477 42.9593 13.0345 42.5903 13.404C37.1086 18.8937 29.6968 33.8377 29.6968 42.0152C29.6968 55.1743 41.5166 55.319 43.2597 55.1743Z" stroke="#F9E6D6" stroke-width="7" stroke-linecap="round"/>
</svg>
