<svg width="207" height="201" viewBox="0 0 207 201" fill="none" xmlns="http://www.w3.org/2000/svg">
<path d="M28.875 136.992L43.6113 196.241C43.7222 196.687 44.1224 197 44.5817 197H65.3583M28.875 136.992C20.5833 134.829 4 124.341 4 99.6891C4 75.037 26.1111 65.6303 37.1667 64.0084M28.875 136.992C34.409 139.754 45.9741 141.046 55.4083 141.563M184.758 136.992L165.086 196.315C164.95 196.724 164.567 197 164.136 197H148.275M184.758 136.992C192.497 130.504 203 114.286 203 99.6891C203 91.1891 200.781 81.0135 196.5 72.1176M184.758 136.992C184.758 132.216 175.19 128.824 164.858 126.666M146.617 33.1933C162.537 35.7882 176.5 45.5 184.758 54C189.235 58.608 192.939 64.7186 196.5 72.1176M146.617 33.1933C142.238 24.0928 124.742 5.6628 89.6218 4.04308C89.0559 4.01699 88.575 4.4704 88.575 5.03688V26.7059M146.617 33.1933C151.592 39.1401 158.557 55.2504 146.617 72.1176M88.575 26.7059C74.2028 24.0028 43.8 27.679 37.1667 64.0084M88.575 26.7059C95.2083 27.7871 108.807 31.8958 110.133 39.6807M37.1667 64.0084C50.4333 66.1709 76.9667 75.037 76.9667 93.2017M55.4083 141.563C59.268 141.775 62.7709 141.857 65.3583 141.857C69.9823 141.575 77.6583 140.701 85.2583 139.004M55.4083 141.563L65.3583 197M65.3583 197H85.2583M85.2583 197V139.004M85.2583 197H131.692M85.2583 139.004C92.1951 137.456 98.4497 134.054 103.5 132.126C113 128.5 121.251 125.794 131.692 124.784M131.692 197V124.784M131.692 197H148.275M131.692 124.784C137.486 124.223 142.868 124.017 146.617 124.017C151.532 124.435 158.347 125.305 164.858 126.666M148.275 197L164.858 126.666M196.5 72.1176C194.713 81.8487 183.432 101.635 158.225 102.933" stroke="#F9E6D6" stroke-width="7" stroke-linecap="round" stroke-linejoin="round"/>
</svg>
