<svg width="207" height="201" viewBox="0 0 207 201" fill="none" xmlns="http://www.w3.org/2000/svg">
<path d="M33.6936 133.955C30.3983 134.592 23.1485 137.392 20.5122 143.501M33.6936 133.955C33.6936 130.137 38.4012 126.001 40.755 124.41M33.6936 133.955C35.7336 141.273 49.6053 158.391 88.7729 168.319C127.94 178.246 154.994 189.637 163.624 194.091M20.5122 143.501C14.7061 147.16 3.28227 157.246 4.03549 168.319C4.78871 179.391 20.3552 186.932 28.0444 189.318C34.0074 191.705 49.8878 196.573 65.7055 196.955C80.557 197.313 99.0605 195.456 107.89 194.306M20.5122 143.501C19.9185 158.439 36.5628 189.514 107.89 194.306M163.624 194.091C154.994 192.5 136.414 189.318 131.142 189.318C125.869 189.318 114.508 192.5 109.487 194.091C108.998 194.159 108.464 194.231 107.89 194.306M163.624 194.091C169.901 195.682 183.867 197.909 189.516 194.091C195.166 190.273 194.381 183.591 193.282 180.728M193.282 180.728C197.206 178.819 204.581 173.664 202.698 168.319C200.344 161.637 198.932 160.205 189.516 156.387C189.516 147.319 185.091 145.123 173.04 143.978M193.282 180.728C185.75 165.073 141.498 154.804 120.314 151.626M173.04 143.978C175.393 141.91 180.195 135.96 180.572 128.705C180.948 121.451 175.707 116.774 173.04 115.342L154.68 101.978M173.04 143.978C159.858 151.996 142.754 151.137 135.849 149.705M173.04 143.978C174.715 140.37 167.355 128.705 142.405 121.987C118.396 121.987 112.233 106.994 101.013 101.978M154.68 101.978C155.621 93.0691 155.245 71.7193 146.206 57.5921C137.167 43.4649 126.748 30.7059 122.668 26.0923C118.745 21.3196 107.227 10.5333 92.539 5.5697M154.68 101.978C153.268 101.978 146.583 102.742 131.142 105.796M92.539 5.5697C77.8512 0.606099 66.9608 8.59241 63.3516 13.206L77.9453 16.0696M92.539 5.5697C101.797 12.0924 120.314 29.624 120.314 47.5694C120.314 65.5147 127.532 93.8645 131.142 105.796M77.9453 16.0696C85.3206 18.1378 95.6461 26.0922 77.9453 41.3649C60.2446 56.6375 51.4256 66.8193 49.2287 70.001C45.8225 73.9048 40.6271 83.9586 45.4358 94.3848M77.9453 16.0696C87.6745 16.7059 104.214 26.3786 92.539 59.9784C80.8641 93.5782 64.5206 101.978 57.8083 101.978M40.755 124.41C39.3427 124.251 36.2356 121.26 35.1058 110.569C33.976 99.8781 42.1673 96.5691 46.4041 96.2509C46.0442 95.6283 45.7222 95.0059 45.4358 94.3848M40.755 124.41C46.1243 135.228 67.0683 154.955 107.89 147.319C110.287 148.86 114.82 150.87 120.314 151.626M135.849 149.705C78.6044 134.814 51.7216 106.62 45.4358 94.3848M135.849 149.705C130.456 151.998 125.031 152.274 120.314 151.626M45.4358 94.3848C47.8996 96.761 52.1265 99.6688 57.8083 101.978M101.013 101.978C104.622 104.524 115.701 108.851 131.142 105.796M101.013 101.978C83.0757 108.367 68.0694 106.149 57.8083 101.978" stroke="#F9E6D6" stroke-width="7" stroke-linejoin="round"/>
</svg>
