<svg width="60" height="60" viewBox="0 0 60 60" fill="none" xmlns="http://www.w3.org/2000/svg">
<path d="M58.4453 51.0749C60.5182 53.1478 60.5182 56.3724 58.4453 58.4453C57.4088 59.4818 56.142 59.9424 54.7601 59.9424C53.3781 59.9424 52.1113 59.4818 51.0749 58.4453L30 37.3704L8.92515 58.4453C7.88868 59.4818 6.62188 59.9424 5.23992 59.9424C3.85797 59.9424 2.59117 59.4818 1.5547 58.4453C-0.518234 56.3724 -0.518234 53.1478 1.5547 51.0749L22.6296 30L1.5547 8.92515C-0.518234 6.85221 -0.518234 3.62764 1.5547 1.5547C3.62764 -0.518234 6.85221 -0.518234 8.92515 1.5547L30 22.6296L51.0749 1.5547C53.1478 -0.518234 56.3724 -0.518234 58.4453 1.5547C60.5182 3.62764 60.5182 6.85221 58.4453 8.92515L37.3704 30L58.4453 51.0749Z" fill="white"/>
</svg>
