<svg width="1346" height="432" viewBox="0 0 1346 432" fill="none" xmlns="http://www.w3.org/2000/svg">
<g clip-path="url(#clip0_329_1347)">
<rect width="1346" height="432" rx="10" fill="white"/>
<path d="M1349.5 1H390.5C353 26.5 356.5 54.5 379 78.5C405.412 106.672 416.651 157.177 353 150.5C281.5 143 235 177 235 202C235 220 238.6 250.78 262 269.5C289.5 291.5 345.5 309.5 345.5 342.5C345.5 375.5 306.2 376.3 225 379.5C143.8 382.7 171.5 416.5 195.5 433H1349.5V1Z" fill="#AECDD0"/>
<path d="M1349.5 1H390.5C353 26.5 356.5 54.5 379 78.5C405.412 106.672 416.651 157.177 353 150.5C281.5 143 235 177 235 202C235 220 238.6 250.78 262 269.5C289.5 291.5 345.5 309.5 345.5 342.5C345.5 375.5 306.2 376.3 225 379.5C143.8 382.7 171.5 416.5 195.5 433H1349.5V1Z" stroke="#AECDD0" stroke-width="7" stroke-linejoin="round"/>
<path d="M1349.5 1H390.5C353 26.5 356.5 54.5 379 78.5C405.412 106.672 416.651 157.177 353 150.5C281.5 143 235 177 235 202C235 220 238.6 250.78 262 269.5C289.5 291.5 345.5 309.5 345.5 342.5C345.5 375.5 306.2 376.3 225 379.5C143.8 382.7 171.5 416.5 195.5 433H1349.5V1Z" stroke="#AECDD0" stroke-width="7" stroke-linejoin="round"/>
<path d="M380 115.5C375.891 105 359.667 81.3333 348.5 71C348.5 93.8 356.5 123.5 364 132.5C369.27 138.824 376 137.389 380 132.5C382.864 129 382.935 123 380 115.5Z" fill="#05697C"/>
<path d="M380 115.5C375.891 105 359.667 81.3333 348.5 71C348.5 93.8 356.5 123.5 364 132.5C369.27 138.824 376 137.389 380 132.5C382.864 129 382.935 123 380 115.5Z" stroke="#05697C"/>
<path d="M380 115.5C375.891 105 359.667 81.3333 348.5 71C348.5 93.8 356.5 123.5 364 132.5C369.27 138.824 376 137.389 380 132.5C382.864 129 382.935 123 380 115.5Z" stroke="#05697C"/>
<path d="M271.241 200.568C280.895 194.743 301.479 174.752 309.777 162C287.305 165.853 259.384 178.758 251.781 187.671C246.438 193.934 248.991 200.324 254.485 203.441C258.419 205.672 264.344 204.728 271.241 200.568Z" fill="#05697C"/>
<path d="M202.178 410.409C213.326 408.721 239.992 398.123 252.536 389.514C230.299 384.479 199.566 385.722 189.132 391.05C181.799 394.793 181.713 401.674 185.598 406.655C188.379 410.22 194.215 411.615 202.178 410.409Z" fill="#05697C"/>
<path d="M402.241 28.5676C411.895 22.7434 432.479 2.75241 440.777 -10C418.305 -6.14671 390.384 6.75764 382.781 15.6708C377.438 21.9343 379.991 28.3244 385.485 31.4406C389.419 33.6716 395.344 32.7277 402.241 28.5676Z" fill="#05697C"/>
<path d="M321.033 330.445C312.964 322.57 288.432 307.687 274 302.871C283.391 323.647 302.915 347.415 313.456 352.527C320.864 356.119 326.405 352.039 328.036 345.936C329.203 341.567 326.797 336.071 321.033 330.445Z" fill="#05697C" stroke="#05697C"/>
<g filter="url(#filter0_f_329_1347)">
<circle cx="1304.5" cy="44.5" r="139.5" fill="#05697C"/>
<circle cx="1304.5" cy="44.5" r="139" stroke="#05697C"/>
</g>
<g filter="url(#filter1_f_329_1347)">
<circle cx="1304.5" cy="428.5" r="139.5" fill="#05697C"/>
<circle cx="1304.5" cy="428.5" r="139" stroke="#05697C"/>
</g>
<g filter="url(#filter2_f_329_1347)">
<circle cx="855.5" cy="432.5" r="139.5" fill="#05697C"/>
<circle cx="855.5" cy="432.5" r="139" stroke="#05697C"/>
</g>
<g filter="url(#filter3_f_329_1347)">
<circle cx="494.5" cy="431.5" r="76.5" fill="#05697C"/>
<circle cx="494.5" cy="431.5" r="76" stroke="#05697C"/>
</g>
<g filter="url(#filter4_f_329_1347)">
<circle cx="982.5" cy="0.5" r="76.5" fill="#05697C"/>
<circle cx="982.5" cy="0.5" r="76" stroke="#05697C"/>
</g>
<g filter="url(#filter5_f_329_1347)">
<circle cx="642.5" cy="0.5" r="139.5" fill="#05697C"/>
<circle cx="642.5" cy="0.5" r="139" stroke="#05697C"/>
</g>
<path d="M1210.07 77.7773C1210.45 77.2383 1210.69 76.6758 1210.81 76.0898C1210.95 75.457 1210.96 74.8477 1210.84 74.2617C1210.52 75.5742 1210.08 76.6172 1209.54 77.3906C1209.03 78.1406 1208.18 78.9023 1207.01 79.6758C1207.55 79.6055 1208.12 79.3945 1208.73 79.043C1209.25 78.7383 1209.7 78.3164 1210.07 77.7773ZM1194.74 78.9727C1195.21 78.8789 1195.77 78.8086 1196.43 78.7617C1197.11 78.7617 1197.71 78.7148 1198.22 78.6211C1197.73 78.4805 1197.13 78.3516 1196.43 78.2344C1195.84 78.1641 1195.23 78.1875 1194.6 78.3047C1193.88 78.4922 1193.3 78.7969 1192.88 79.2188C1192.43 79.6641 1192.19 80.2266 1192.14 80.9062C1192.52 80.2969 1192.88 79.8633 1193.23 79.6055C1193.63 79.3242 1194.13 79.1133 1194.74 78.9727ZM1194.81 50.3203C1195.26 49.8281 1195.83 49.3242 1196.54 48.8086C1197.64 48.0117 1199.01 47.3203 1200.65 46.7344C1201.8 46.3359 1203.3 45.9375 1205.15 45.5391C1204.56 45.5625 1203.78 45.6328 1202.79 45.75C1202.09 45.8672 1201.32 46.0312 1200.47 46.2422C1198.88 46.6875 1197.44 47.3672 1196.15 48.2812C1195.38 48.8438 1194.78 49.3828 1194.36 49.8984C1194.1 50.2031 1193.85 50.5195 1193.62 50.8477C1193.41 51.1523 1193.22 51.5273 1193.05 51.9727C1192.54 53.332 1192.28 54.8906 1192.28 56.6484L1192.53 55.4883C1192.6 55.0664 1192.68 54.6914 1192.77 54.3633C1192.98 53.5195 1193.24 52.7812 1193.55 52.1484C1193.71 51.7969 1193.9 51.4805 1194.11 51.1992C1194.34 50.8711 1194.58 50.5781 1194.81 50.3203ZM1207.71 59.7422C1208.89 59.8359 1210.06 60.0117 1211.23 60.2695C1214.79 61.0664 1217.75 62.5781 1220.09 64.8047C1222.29 66.8672 1223.75 69.3398 1224.45 72.2227C1225.15 75.082 1225.04 77.9297 1224.1 80.7656C1223.11 83.7188 1221.36 86.2852 1218.82 88.4648C1216.36 90.6211 1213.32 92.0156 1209.68 92.6484C1206.33 93.2109 1202.99 93.0938 1199.66 92.2969C1196.38 91.4766 1193.78 90.1523 1191.86 88.3242C1189.8 86.3555 1188.93 84.1289 1189.26 81.6445C1189.96 76.1836 1194.24 74.543 1202.09 76.7227C1203.57 77.1211 1204.69 77.2969 1205.46 77.25C1205.91 77.2031 1206.38 77.0391 1206.87 76.7578C1207.81 76.1719 1208.23 75.2344 1208.14 73.9453C1208.04 72.6094 1207.41 71.5781 1206.24 70.8516C1205.42 70.3359 1204.34 70.0195 1203 69.9023C1202.54 69.8789 1201.91 69.8555 1201.14 69.832H1200.19H1199.24C1197.67 69.7852 1196.38 69.5977 1195.38 69.2695C1194.02 68.8477 1192.86 68.0977 1191.89 67.0195C1190.32 65.2852 1189.54 62.4023 1189.54 58.3711C1189.54 54.3867 1190.29 51.3633 1191.79 49.3008C1194.16 46.0195 1198.04 43.9453 1203.43 43.0781C1207.71 42.375 1211.58 42.4805 1215.03 43.3945C1217.09 43.957 1218.6 44.9531 1219.56 46.3828C1220.43 47.6953 1220.71 49.1133 1220.41 50.6367C1220.15 52.1133 1219.41 53.2852 1218.19 54.1523C1216.88 55.0898 1215.32 55.3828 1213.52 55.0312C1209.11 54.2344 1205.86 54.3516 1203.78 55.3828C1203.1 55.7109 1202.62 56.2383 1202.34 56.9648C1202.03 57.6914 1202.05 58.2891 1202.41 58.7578C1202.76 59.25 1203.68 59.5195 1205.18 59.5664L1205.71 59.6016L1206.34 59.6367C1206.84 59.6602 1207.29 59.6953 1207.71 59.7422ZM1249.41 78.0938C1250.02 77.625 1250.52 76.9922 1250.92 76.1953C1251.65 74.6953 1251.82 73.1484 1251.45 71.5547C1251.24 73.3594 1250.85 74.8008 1250.29 75.8789C1249.59 77.3086 1248.57 78.3633 1247.23 79.043C1248 78.9492 1248.73 78.6328 1249.41 78.0938ZM1243.93 75.6328C1244.75 76.4062 1245.59 76.6641 1246.46 76.4062C1247.3 76.1484 1247.93 75.4453 1248.36 74.2969C1248.75 73.1719 1248.81 71.9297 1248.53 70.5703C1248.25 69.2109 1247.7 68.1562 1246.88 67.4062C1246.08 66.6328 1245.25 66.375 1244.38 66.6328C1243.52 66.8906 1242.87 67.5938 1242.45 68.7422C1242.05 69.8672 1241.99 71.1094 1242.27 72.4688C1242.55 73.8047 1243.11 74.8594 1243.93 75.6328ZM1232.89 56.4023C1233.66 54.2695 1234.56 52.4883 1235.59 51.0586C1236.79 49.3242 1238.23 47.9766 1239.92 47.0156C1241.51 46.125 1243.45 45.5977 1245.72 45.4336C1244.73 45.3633 1243.7 45.4102 1242.62 45.5742C1241.59 45.7852 1240.61 46.1133 1239.67 46.5586C1237.89 47.4258 1236.34 48.7852 1235.03 50.6367C1233.88 52.2773 1233 54.1523 1232.39 56.2617C1232.11 57.2461 1231.88 58.2422 1231.69 59.25C1231.5 60.4922 1231.4 61.5117 1231.38 62.3086C1231.77 60.1055 1232.28 58.1367 1232.89 56.4023ZM1234.08 47.9297C1237.95 43.4531 1243.12 41.8242 1249.59 43.043C1255.38 44.1445 1259.5 47.5898 1261.96 53.3789C1264.12 58.5117 1264.67 64.4766 1263.61 71.2734C1262.58 77.9062 1260.34 83.2969 1256.9 87.4453C1253.15 91.9922 1248.88 93.75 1244.1 92.7188C1238.99 91.6172 1234.97 88.1367 1232.04 82.2773C1229.35 76.8633 1228.15 70.8281 1228.46 64.1719C1228.79 57.3281 1230.66 51.9141 1234.08 47.9297ZM1299.61 50.6719C1300.62 49.3828 1301.51 48.375 1302.29 47.6484C1303.55 46.4297 1304.69 45.75 1305.7 45.6094C1305.13 45.6094 1304.48 45.7969 1303.73 46.1719C1303.35 46.4062 1303.06 46.5938 1302.85 46.7344L1302.46 47.0508L1302.04 47.3672C1301.24 48.0703 1300.29 49.043 1299.19 50.2852C1297.97 51.6914 1296.31 53.8477 1294.2 56.7539C1292.32 59.4023 1290.77 61.6289 1289.52 63.4336C1288.96 64.3008 1288.2 65.4141 1287.24 66.7734L1284.92 70.1133L1286.22 68.5664L1287.52 66.9844L1288.75 65.3672L1289.98 63.75C1290.71 62.8125 1291.52 61.7227 1292.41 60.4805L1294.8 57.1758C1296.88 54.2461 1298.49 52.0781 1299.61 50.6719ZM1302.78 43.5C1304.42 42.6328 1306 42.4805 1307.52 43.043C1310.52 44.168 1311.5 47.0742 1310.44 51.7617C1309.39 56.3086 1306.54 61.9922 1301.9 68.8125C1296.23 77.1094 1290.11 83.6133 1283.55 88.3242C1280.41 90.5742 1277.62 92.0156 1275.18 92.6484C1272.6 93.3281 1270.61 93.0352 1269.2 91.7695C1267.87 90.5742 1267.4 89.1562 1267.8 87.5156C1268.15 86.1094 1269.24 84.2578 1271.07 81.9609C1271.75 81.0938 1272.71 79.957 1273.95 78.5508L1274.76 77.6016L1275.6 76.6523C1276.35 75.7852 1276.95 75.0938 1277.39 74.5781C1280.54 70.9688 1283.17 67.7109 1285.3 64.8047C1286.29 63.4453 1287.48 61.7812 1288.89 59.8125L1289.73 58.6172L1290.54 57.457C1291.18 56.5664 1291.7 55.8281 1292.12 55.2422C1294.49 51.9375 1296.39 49.4766 1297.82 47.8594C1299.67 45.7266 1301.32 44.2734 1302.78 43.5ZM1274.76 45.75C1274.2 45.9609 1273.67 46.3125 1273.18 46.8047C1272.24 47.8125 1271.83 48.9492 1271.95 50.2148C1272.44 48.9961 1273.02 48.0234 1273.7 47.2969C1274.52 46.4297 1275.5 45.8672 1276.62 45.6094C1276.04 45.4453 1275.41 45.4922 1274.76 45.75ZM1280.17 57.7383C1278.32 59.0508 1276.34 59.4023 1274.23 58.793C1272.43 58.2773 1271.03 57.1406 1270.05 55.3828C1269.09 53.6719 1268.76 51.8086 1269.06 49.793C1269.34 47.7773 1270.21 46.0898 1271.66 44.7305C1273.12 43.3477 1274.78 42.668 1276.66 42.6914C1278.84 42.7383 1280.63 43.6641 1282.04 45.4688C1283.44 47.3203 1283.96 49.4883 1283.58 51.9727C1283.21 54.457 1282.07 56.3789 1280.17 57.7383ZM1305.52 82.4883C1306.04 81.2695 1306.63 80.3086 1307.31 79.6055C1308.13 78.7383 1309.11 78.1641 1310.23 77.8828C1309.64 77.7422 1309.02 77.7891 1308.37 78.0234C1307.8 78.2344 1307.28 78.5859 1306.79 79.0781C1305.85 80.1094 1305.43 81.2461 1305.52 82.4883ZM1305.27 77.0039C1306.73 75.6211 1308.39 74.9414 1310.27 74.9648C1312.45 75.0117 1314.23 75.9375 1315.61 77.7422C1317.04 79.5938 1317.57 81.7617 1317.19 84.2461C1316.82 86.7539 1315.68 88.6758 1313.78 90.0117C1311.93 91.3477 1309.95 91.7109 1307.84 91.1016C1306.04 90.5625 1304.64 89.4141 1303.66 87.6562C1302.7 85.9453 1302.36 84.082 1302.64 82.0664C1302.94 80.0508 1303.82 78.3633 1305.27 77.0039Z" fill="#AECDD0"/>
<path d="M1249.53 149H1245.52C1244.99 148.984 1244.55 148.805 1244.19 148.461C1243.84 148.102 1243.67 147.664 1243.67 147.148C1243.67 146.43 1244.02 145.883 1244.7 145.508C1244.95 145.383 1245.23 145.32 1245.52 145.32H1249.53C1250.52 145.32 1251.35 144.977 1252.04 144.289C1252.73 143.586 1253.07 142.75 1253.07 141.781V133.719C1253.07 132.734 1252.73 131.898 1252.04 131.211C1251.35 130.523 1250.52 130.18 1249.53 130.18C1247.69 130.18 1246.09 129.562 1244.73 128.328C1243.98 127.656 1243.38 126.859 1242.95 125.938C1242.52 125.016 1242.31 124.016 1242.31 122.938C1242.31 121.469 1242.62 120.195 1243.23 119.117C1243.9 117.945 1244.82 117.023 1245.99 116.352C1247.07 115.742 1248.25 115.438 1249.53 115.438H1252.72C1253.28 115.484 1253.72 115.664 1254.03 115.977C1254.39 116.336 1254.57 116.766 1254.57 117.266C1254.57 117.953 1254.27 118.484 1253.66 118.859C1253.47 118.969 1253.27 119.039 1253.05 119.07C1252.83 119.102 1251.66 119.117 1249.53 119.117C1248.56 119.117 1247.73 119.461 1247.02 120.148C1246.34 120.836 1245.99 121.672 1245.99 122.656V122.938C1245.99 123.922 1246.34 124.758 1247.02 125.445C1247.73 126.133 1248.56 126.477 1249.53 126.477C1251.38 126.477 1252.98 127.094 1254.36 128.328C1255.09 129 1255.67 129.797 1256.09 130.719C1256.53 131.641 1256.75 132.641 1256.75 133.719V141.781C1256.75 143.062 1256.45 144.242 1255.84 145.32C1255.16 146.492 1254.24 147.406 1253.07 148.062C1252.01 148.688 1250.83 149 1249.53 149ZM1277.61 149C1276.75 149 1276.16 148.547 1275.83 147.641L1274.21 141.477H1265.26L1263.64 147.641C1263.31 148.547 1262.72 149 1261.86 149C1261.7 149 1261.55 148.984 1261.39 148.953C1260.48 148.625 1260.03 148.031 1260.03 147.172C1260.03 146.969 1262.66 136.883 1267.93 116.914C1268.1 116.211 1268.55 115.742 1269.27 115.508C1269.44 115.477 1269.6 115.461 1269.76 115.461C1270.59 115.461 1271.18 115.93 1271.54 116.867C1276.8 136.867 1279.44 146.969 1279.44 147.172C1279.44 148.031 1278.98 148.625 1278.08 148.953C1277.91 148.984 1277.75 149 1277.61 149ZM1273.23 137.797L1269.73 124.508L1266.22 137.797H1273.23ZM1291.46 149C1291.1 149 1290.77 148.906 1290.48 148.719C1290.1 148.531 1289.85 148.172 1289.73 147.641L1281.8 117.969C1281.73 117.719 1281.69 117.477 1281.69 117.242C1281.69 116.508 1282.05 115.945 1282.79 115.555C1283.04 115.477 1283.28 115.438 1283.52 115.438C1284.12 115.438 1284.64 115.711 1285.06 116.258C1285.11 116.367 1287.25 124.289 1291.48 140.023L1297.53 116.797C1297.58 116.547 1297.68 116.328 1297.84 116.141C1298.24 115.672 1298.72 115.438 1299.27 115.438C1299.48 115.438 1299.73 115.477 1299.99 115.555C1300.73 115.914 1301.09 116.477 1301.09 117.242C1301.09 117.477 1301.06 117.719 1301 117.969L1293.31 147.477C1293.16 148.492 1292.54 149 1291.46 149ZM1314.15 149H1306.6C1306.12 148.938 1305.72 148.734 1305.41 148.391C1305.09 148.047 1304.94 147.633 1304.94 147.148V117.266C1304.94 116.797 1305.09 116.391 1305.41 116.047C1305.72 115.688 1306.12 115.484 1306.6 115.438H1314.15C1314.65 115.438 1315.08 115.617 1315.44 115.977C1315.8 116.336 1315.98 116.766 1315.98 117.266C1315.98 117.781 1315.8 118.219 1315.44 118.578C1315.08 118.938 1314.65 119.117 1314.15 119.117H1308.62V124.719H1313C1313.52 124.719 1313.95 124.898 1314.31 125.258C1314.67 125.617 1314.85 126.055 1314.85 126.57C1314.85 127.07 1314.67 127.5 1314.31 127.859C1313.95 128.219 1313.52 128.398 1313 128.398H1308.62V145.32H1314.15C1314.65 145.32 1315.08 145.5 1315.44 145.859C1315.8 146.219 1315.98 146.648 1315.98 147.148C1315.98 147.664 1315.8 148.102 1315.44 148.461C1315.08 148.82 1314.65 149 1314.15 149Z" fill="#AECDD0"/>
</g>
<defs>
<filter id="filter0_f_329_1347" x="1161" y="-99" width="287" height="287" filterUnits="userSpaceOnUse" color-interpolation-filters="sRGB">
<feFlood flood-opacity="0" result="BackgroundImageFix"/>
<feBlend mode="normal" in="SourceGraphic" in2="BackgroundImageFix" result="shape"/>
<feGaussianBlur stdDeviation="2" result="effect1_foregroundBlur_329_1347"/>
</filter>
<filter id="filter1_f_329_1347" x="1161" y="285" width="287" height="287" filterUnits="userSpaceOnUse" color-interpolation-filters="sRGB">
<feFlood flood-opacity="0" result="BackgroundImageFix"/>
<feBlend mode="normal" in="SourceGraphic" in2="BackgroundImageFix" result="shape"/>
<feGaussianBlur stdDeviation="2" result="effect1_foregroundBlur_329_1347"/>
</filter>
<filter id="filter2_f_329_1347" x="712" y="289" width="287" height="287" filterUnits="userSpaceOnUse" color-interpolation-filters="sRGB">
<feFlood flood-opacity="0" result="BackgroundImageFix"/>
<feBlend mode="normal" in="SourceGraphic" in2="BackgroundImageFix" result="shape"/>
<feGaussianBlur stdDeviation="2" result="effect1_foregroundBlur_329_1347"/>
</filter>
<filter id="filter3_f_329_1347" x="414" y="351" width="161" height="161" filterUnits="userSpaceOnUse" color-interpolation-filters="sRGB">
<feFlood flood-opacity="0" result="BackgroundImageFix"/>
<feBlend mode="normal" in="SourceGraphic" in2="BackgroundImageFix" result="shape"/>
<feGaussianBlur stdDeviation="2" result="effect1_foregroundBlur_329_1347"/>
</filter>
<filter id="filter4_f_329_1347" x="902" y="-80" width="161" height="161" filterUnits="userSpaceOnUse" color-interpolation-filters="sRGB">
<feFlood flood-opacity="0" result="BackgroundImageFix"/>
<feBlend mode="normal" in="SourceGraphic" in2="BackgroundImageFix" result="shape"/>
<feGaussianBlur stdDeviation="2" result="effect1_foregroundBlur_329_1347"/>
</filter>
<filter id="filter5_f_329_1347" x="499" y="-143" width="287" height="287" filterUnits="userSpaceOnUse" color-interpolation-filters="sRGB">
<feFlood flood-opacity="0" result="BackgroundImageFix"/>
<feBlend mode="normal" in="SourceGraphic" in2="BackgroundImageFix" result="shape"/>
<feGaussianBlur stdDeviation="2" result="effect1_foregroundBlur_329_1347"/>
</filter>
<clipPath id="clip0_329_1347">
<rect width="1346" height="432" rx="10" fill="white"/>
</clipPath>
</defs>
</svg>
