<svg width="115" height="105" viewBox="0 0 115 105" fill="none" xmlns="http://www.w3.org/2000/svg">
<path d="M1.638 101V85.634H8.528V86.83H3.25V89.69H5.824C6.552 89.69 7.14133 89.8027 7.592 90.028C8.06 90.2533 8.398 90.6087 8.606 91.094C8.83133 91.562 8.944 92.1773 8.944 92.94V97.178C8.944 97.906 8.87467 98.5127 8.736 98.998C8.61467 99.4833 8.424 99.8733 8.164 100.168C7.904 100.463 7.566 100.679 7.15 100.818C6.75133 100.939 6.266 101 5.694 101H1.638ZM5.382 100.064C5.93667 100.064 6.35267 99.96 6.63 99.752C6.90733 99.5267 7.08933 99.2233 7.176 98.842C7.28 98.4607 7.332 98.036 7.332 97.568V93.174C7.332 92.7407 7.28867 92.342 7.202 91.978C7.11533 91.5967 6.93333 91.2933 6.656 91.068C6.37867 90.8427 5.93667 90.73 5.33 90.73H3.25V100.064H5.382ZM11.7979 104.042C11.4339 104.042 11.1046 104.016 10.8099 103.964C10.5326 103.912 10.3159 103.869 10.1599 103.834V102.872C10.2119 102.907 10.3246 102.941 10.4979 102.976C10.6886 103.011 10.9052 103.028 11.1479 103.028C11.4079 103.028 11.6939 102.985 12.0059 102.898C12.3352 102.811 12.6039 102.569 12.8119 102.17C12.9159 101.997 13.0286 101.797 13.1499 101.572C13.2886 101.347 13.3232 101.087 13.2539 100.792L10.2899 88.13H11.9539L14.3199 99.362H14.2939L16.5819 88.13H18.1159L15.3079 100.506C15.0479 101.702 14.6406 102.586 14.0859 103.158C13.5312 103.747 12.7686 104.042 11.7979 104.042ZM18.8533 103.782V99.986H20.0233C20.2486 99.9513 20.4566 99.8647 20.6473 99.726C20.8553 99.5873 21.0286 99.362 21.1673 99.05C21.3233 98.738 21.4273 98.3307 21.4793 97.828L22.4413 88.156H28.6293V99.986H30.6833V103.782H29.3053V101.26H20.2573V103.782H18.8533ZM22.3633 99.986H26.9393V89.352H23.9233L23.1173 97.412C23.0479 97.8453 22.9699 98.3307 22.8833 98.868C22.7966 99.388 22.6233 99.7607 22.3633 99.986ZM35.9873 101.234C35.1206 101.234 34.4186 101.139 33.8813 100.948C33.3439 100.74 32.9539 100.367 32.7113 99.83C32.4686 99.2927 32.3473 98.5127 32.3473 97.49V91.068C32.3473 89.8547 32.6159 89.0227 33.1533 88.572C33.7079 88.1213 34.6179 87.896 35.8833 87.896C37.1139 87.896 37.9979 88.1213 38.5353 88.572C39.0899 89.0227 39.3673 89.8547 39.3673 91.068V94.396H33.9593V98.036C33.9593 98.868 34.0893 99.4487 34.3493 99.778C34.6093 100.09 35.1379 100.246 35.9353 100.246C36.6633 100.246 37.1486 100.09 37.3913 99.778C37.6339 99.466 37.7553 98.8853 37.7553 98.036V96.372H39.3673V97.464C39.3673 98.4693 39.2459 99.2493 39.0033 99.804C38.7606 100.341 38.3879 100.714 37.8853 100.922C37.3999 101.13 36.7673 101.234 35.9873 101.234ZM33.9593 93.564H37.7553V91.016C37.7553 90.288 37.6339 89.7593 37.3913 89.43C37.1486 89.1007 36.6459 88.936 35.8833 88.936C35.1206 88.936 34.6093 89.1007 34.3493 89.43C34.0893 89.7593 33.9593 90.288 33.9593 91.016V93.564ZM41.3869 101V88.13H42.9989V99.83H46.3269V88.13H47.9389V99.83H51.2669V88.13H52.8789V101H41.3869ZM55.0719 101V88.182H56.6839V92.186H59.2579C60.0552 92.186 60.6792 92.3073 61.1299 92.55C61.5805 92.7927 61.9012 93.1567 62.0919 93.642C62.2825 94.1273 62.3779 94.7253 62.3779 95.436V96.736C62.3779 97.464 62.3259 98.0967 62.2219 98.634C62.1179 99.1713 61.9445 99.6133 61.7019 99.96C61.4592 100.307 61.1299 100.567 60.7139 100.74C60.2979 100.913 59.7605 101 59.1019 101H55.0719ZM56.6839 100.064H58.7899C59.3619 100.064 59.7865 99.96 60.0639 99.752C60.3412 99.5267 60.5232 99.2233 60.6099 98.842C60.7139 98.4607 60.7659 98.036 60.7659 97.568V95.748C60.7659 95.2973 60.7225 94.8813 60.6359 94.5C60.5665 94.1187 60.3932 93.8153 60.1159 93.59C59.8385 93.3473 59.3965 93.226 58.7899 93.226H56.6839V100.064ZM71.4214 101V89.326H68.6914V88.13H75.8414V89.326H73.0594V101H71.4214ZM80.8247 101.182C80.0273 101.182 79.36 101.078 78.8227 100.87C78.3027 100.645 77.9127 100.255 77.6527 99.7C77.41 99.1453 77.2887 98.3827 77.2887 97.412V91.406C77.2887 90.158 77.5573 89.2653 78.0947 88.728C78.6493 88.1907 79.5593 87.922 80.8247 87.922C82.09 87.922 82.9913 88.182 83.5287 88.702C84.0833 89.222 84.3607 90.1233 84.3607 91.406V97.412C84.3607 98.3827 84.2393 99.1453 83.9967 99.7C83.754 100.237 83.3727 100.619 82.8527 100.844C82.3327 101.069 81.6567 101.182 80.8247 101.182ZM80.8247 100.168C81.518 100.168 82.012 99.9947 82.3067 99.648C82.6013 99.3013 82.7487 98.6687 82.7487 97.75V91.328C82.7487 90.4787 82.61 89.872 82.3327 89.508C82.0553 89.1267 81.5527 88.936 80.8247 88.936C80.1487 88.936 79.6547 89.118 79.3427 89.482C79.048 89.8287 78.9007 90.444 78.9007 91.328V97.75C78.9007 98.6513 79.048 99.284 79.3427 99.648C79.6547 99.9947 80.1487 100.168 80.8247 100.168ZM86.7667 104.016V88.13H88.2747L88.3267 89.274C88.4827 88.91 88.734 88.598 89.0807 88.338C89.4273 88.078 89.9993 87.948 90.7967 87.948C91.6113 87.948 92.2353 88.0867 92.6687 88.364C93.102 88.6413 93.4053 89.0227 93.5787 89.508C93.752 89.9933 93.8387 90.5567 93.8387 91.198V97.542C93.8387 98.2527 93.7607 98.8853 93.6047 99.44C93.4487 99.9947 93.154 100.428 92.7207 100.74C92.2873 101.035 91.646 101.182 90.7967 101.182C90.138 101.182 89.6093 101.078 89.2107 100.87C88.8293 100.662 88.5433 100.402 88.3527 100.09V104.016H86.7667ZM90.3027 100.194C90.788 100.194 91.1607 100.125 91.4207 99.986C91.6807 99.8473 91.8713 99.6653 91.9927 99.44C92.114 99.1973 92.1833 98.9373 92.2007 98.66C92.218 98.3653 92.2267 98.0533 92.2267 97.724V91.458C92.2267 91.1287 92.218 90.8253 92.2007 90.548C92.1833 90.2533 92.114 89.9847 91.9927 89.742C91.8713 89.4993 91.6807 89.3087 91.4207 89.17C91.1607 89.0313 90.788 88.962 90.3027 88.962C89.8173 88.962 89.4447 89.0487 89.1847 89.222C88.9247 89.3953 88.734 89.6293 88.6127 89.924C88.4913 90.2013 88.422 90.5047 88.4047 90.834C88.3873 91.1633 88.3787 91.4753 88.3787 91.77V97.906C88.3787 98.322 88.4133 98.712 88.4827 99.076C88.5693 99.4227 88.7427 99.7 89.0027 99.908C89.28 100.099 89.7133 100.194 90.3027 100.194ZM98.0308 101V89.326H95.3008V88.13H102.451V89.326H99.6688V101H98.0308ZM106.03 97.074V93.902C106.29 93.8847 106.55 93.8673 106.81 93.85C107.07 93.8327 107.321 93.8067 107.564 93.772C107.911 93.72 108.266 93.59 108.63 93.382C108.994 93.174 109.297 92.8707 109.54 92.472C109.8 92.056 109.93 91.5273 109.93 90.886V89.508C109.93 88.676 109.748 88.0173 109.384 87.532C109.02 87.0293 108.439 86.778 107.642 86.778C106.914 86.778 106.385 87.0033 106.056 87.454C105.727 87.8873 105.562 88.5027 105.562 89.3V90.444H103.924V89.196C103.924 86.7693 105.172 85.556 107.668 85.556C108.604 85.556 109.358 85.6947 109.93 85.972C110.519 86.232 110.944 86.6567 111.204 87.246C111.464 87.818 111.594 88.572 111.594 89.508V90.834C111.594 91.614 111.429 92.2813 111.1 92.836C110.771 93.3733 110.372 93.7807 109.904 94.058C109.453 94.3353 108.994 94.5087 108.526 94.578C108.353 94.578 108.179 94.5867 108.006 94.604C107.833 94.604 107.651 94.604 107.46 94.604V97.074H106.03ZM106.706 101.13C106.429 101.13 106.195 101.043 106.004 100.87C105.831 100.679 105.744 100.454 105.744 100.194C105.744 99.9167 105.831 99.6913 106.004 99.518C106.195 99.3273 106.429 99.232 106.706 99.232C106.983 99.232 107.226 99.3273 107.434 99.518C107.642 99.6913 107.746 99.9167 107.746 100.194C107.746 100.454 107.642 100.679 107.434 100.87C107.226 101.043 106.983 101.13 106.706 101.13Z" fill="#F9E6D6"/>
<path d="M33.6777 47.1556L60.85 31.4077M81.6944 43.4333V43.1105C81.6944 42.3899 81.3067 41.725 80.6796 41.37L66.0611 33.0954" stroke="#F9E6D6"/>
<path d="M60.8501 1V4.72222" stroke="#F9E6D6" stroke-linecap="round"/>
<path d="M58.9888 2.86111H62.711" stroke="#F9E6D6" stroke-linecap="round"/>
<path d="M50.8 22.9611V27.4278" stroke="#F9E6D6" stroke-linecap="round"/>
<path d="M48.5667 25.1945H53.0333" stroke="#F9E6D6" stroke-linecap="round"/>
<path d="M64.0612 20.3556H62.8501C61.7455 20.3556 60.8501 21.251 60.8501 22.3556V36.2222C60.8501 37.3268 61.7455 38.2222 62.8501 38.2222H64.0612C65.1658 38.2222 66.0612 37.3268 66.0612 36.2222V22.3556C66.0612 21.251 65.1658 20.3556 64.0612 20.3556Z" stroke="#F9E6D6"/>
<path d="M63.8397 9.241C63.6629 9.02887 63.3476 9.0002 63.1355 9.17699C62.9233 9.35377 62.8947 9.66905 63.0715 9.88119L63.8397 9.241ZM63.9556 20.3555V19.3896H62.9556V20.3555H63.9556ZM65.1973 17.2036C66.499 15.6248 66.6858 12.6564 63.8397 9.241L63.0715 9.88119C65.7301 13.0716 65.316 15.4877 64.4258 16.5674L65.1973 17.2036ZM63.9556 19.3896C63.9556 19.0463 64.0904 18.6989 64.3284 18.3237C64.57 17.9427 64.8801 17.5884 65.1973 17.2036L64.4258 16.5674C64.1365 16.9182 63.7686 17.3392 63.4839 17.7881C63.1955 18.2427 62.9556 18.7795 62.9556 19.3896H63.9556Z" fill="#F9E6D6"/>
<path d="M63.4555 9.5611C61.7184 11.6704 59.6588 16.2611 63.8277 17.75" stroke="#F9E6D6"/>
<path d="M60.8501 22.2167L66.0612 24.8222" stroke="#F9E6D6"/>
<path d="M60.8501 26.3111L66.0612 28.5444" stroke="#F9E6D6"/>
<path d="M42.2388 75.4445C43.7277 77.6778 47.0777 77.6778 48.5665 77.6778C50.0554 77.6778 62.0906 77.6778 67.9221 77.6778C69.5351 77.5537 72.3888 77.6778 73.5054 75.4445" stroke="#F9E6D6"/>
<path d="M33.3056 69.1167C30.3278 69.3648 24 69.8611 24 72.0944C24 74.3278 34.4222 75.4444 41.8667 75.4444H73.5056C79.4611 75.4444 91 74.3278 91 72.0944C91 69.8611 84.3 69.1167 81.6944 69.1167" stroke="#F9E6D6"/>
<path d="M33.3057 48.6224V68.2334C33.3057 69.3379 34.2011 70.2334 35.3057 70.2334H80.0668C81.1713 70.2334 82.0668 69.3379 82.0668 68.2333V44.8639C82.0668 43.6933 81.0659 42.7729 79.8994 42.8709L35.1383 46.6295C34.1023 46.7165 33.3057 47.5828 33.3057 48.6224Z" stroke="#F9E6D6"/>
<path d="M32.9333 60.1833L81.6945 58.3222" stroke="#F9E6D6"/>
<path d="M33.3057 63.9055L81.6946 62.7889" stroke="#F9E6D6"/>
<path d="M39.2612 54.2278V52.5322C39.2612 52.422 39.2685 52.3119 39.2947 52.2049C39.485 51.4263 40.2018 50.1333 41.8668 50.1333C43.5318 50.1333 44.2486 51.4263 44.4389 52.2049C44.465 52.3119 44.4723 52.422 44.4723 52.5322V54.9722C44.4723 55.8407 44.9935 57.5778 47.0779 57.5778C49.1623 57.5778 49.6835 55.8407 49.6835 54.9722V51.9944C49.6835 51.0018 50.279 49.0167 52.6612 49.0167C55.0435 49.0167 54.8946 50.8778 54.8946 51.9944V52.7389C54.8946 53.4833 55.4157 54.9722 57.5001 54.9722C59.5846 54.9722 60.1057 53.4833 60.1057 52.7389V51.25C60.1057 50.2574 60.7012 48.2722 63.0835 48.2722C65.4657 48.2722 65.689 50.1333 65.689 51.25V53.4833C65.689 54.2278 66.1357 55.7167 67.9223 55.7167C69.5873 55.7167 70.3041 54.4237 70.4944 53.6451C70.5206 53.5381 70.5279 53.428 70.5279 53.3178V49.0167C70.5279 48.1481 71.1979 46.4111 73.8779 46.4111C76.5579 46.4111 76.4835 47.9 76.4835 49.0167V50.5055C76.4835 51.6222 76.9301 52.7389 78.7168 52.7389C80.5035 52.7389 81.6946 52.3667 82.0668 48.2722" stroke="#F9E6D6"/>
<path d="M39.2612 53.4833C39.3853 54.4759 38.9634 56.4611 36.2834 56.4611C33.6034 56.4611 33.3057 54.6 33.3057 53.4833" stroke="#F9E6D6"/>
<path d="M72.7612 12.1666C72.7612 10.0574 73.9523 5.8389 77.2279 7.32778" stroke="#F9E6D6" stroke-linecap="round"/>
<path d="M77.2277 7.32778C77.9722 7.70001 79.1633 9.78445 76.4833 10.6778C73.8033 11.5711 73.2574 6.83149 73.5055 4.72223" stroke="#F9E6D6" stroke-linecap="round"/>
<path d="M74.9944 22.2167C75.8629 22.5889 77.5255 22.8122 77.2277 20.7278C76.9299 18.6433 78.3444 18.3704 79.0888 18.4944" stroke="#F9E6D6" stroke-linecap="round"/>
<path d="M42.6111 4.35001C45.9611 6.33519 50.8 12.1667 44.1 12.1667" stroke="#F9E6D6" stroke-linecap="round"/>
<path d="M44.8445 12.1667C43.3556 12.1667 42.1644 11.4966 43.3556 8.81665C44.5467 6.13665 48.9389 7.70001 50.4278 9.56109L51.2722 10.6871C51.4514 10.926 51.5749 11.202 51.6334 11.4949L51.7305 11.9806L51.8236 12.4458L51.8778 12.717C51.9036 12.8461 51.9167 12.9774 51.9167 13.1091L51.9167 13.3309C51.9167 13.546 51.882 13.7596 51.814 13.9635L51.5894 14.6374C51.5594 14.7272 51.524 14.8154 51.4782 14.8982C50.7227 16.2644 49.4341 16.301 48.5666 15.1444C47.6733 13.9533 49.187 13.1593 50.0555 12.9111C51.6685 12.4148 54.8944 12.5389 54.8944 17.0056" stroke="#F9E6D6" stroke-linecap="round"/>
</svg>
