<svg width="20" height="21" viewBox="0 0 20 21" fill="none" xmlns="http://www.w3.org/2000/svg">
<path d="M15 6C15 9.33793 13.5 12 10 12C6.5 12 5 10 5 6.5C5 3 6.21301 0.5 10 0.5C13.787 0.5 15 2.66207 15 6Z" fill="white"/>
<path d="M19.5 18.7792C19.5 19.7296 18.7296 20.5 17.7792 20.5H2.5C1.39543 20.5 0.5 19.6046 0.5 18.5V18.5C0.5 17.7 2.5 16.5 3.5 16C4.34939 15.6303 4.92976 15.416 5.65577 15.2149C6.19111 15.0666 6.76008 15.1835 7.26934 15.4053C7.95102 15.7023 8.93086 16 10 16C11.2026 16 12.2922 15.6234 12.9716 15.2947C13.3271 15.1228 13.7101 15.0218 14.0892 15.1324C14.5609 15.2699 15.3313 15.5325 16.5 16C18.2142 16.6857 19.0714 17.6652 19.3863 18.246C19.4744 18.4086 19.5 18.5943 19.5 18.7792V18.7792Z" fill="white"/>
</svg>
