<svg width="1346" height="432" viewBox="0 0 1346 432" fill="none" xmlns="http://www.w3.org/2000/svg">
<g clip-path="url(#clip0_21_3)">
<path d="M1349.5 1H390.5C353 26.5 356.5 54.5 379 78.5C405.412 106.672 416.651 157.177 353 150.5C281.5 143 235 177 235 202C235 220 238.6 250.78 262 269.5C289.5 291.5 345.5 309.5 345.5 342.5C345.5 375.5 306.2 376.3 225 379.5C143.8 382.7 171.5 416.5 195.5 433H1349.5V1Z" fill="#F9E6D6"/>
<path d="M1349.5 1H390.5C353 26.5 356.5 54.5 379 78.5C405.412 106.672 416.651 157.177 353 150.5C281.5 143 235 177 235 202C235 220 238.6 250.78 262 269.5C289.5 291.5 345.5 309.5 345.5 342.5C345.5 375.5 306.2 376.3 225 379.5C143.8 382.7 171.5 416.5 195.5 433H1349.5V1Z" stroke="#F9E6D6" stroke-width="7" stroke-linejoin="round"/>
<path d="M1349.5 1H390.5C353 26.5 356.5 54.5 379 78.5C405.412 106.672 416.651 157.177 353 150.5C281.5 143 235 177 235 202C235 220 238.6 250.78 262 269.5C289.5 291.5 345.5 309.5 345.5 342.5C345.5 375.5 306.2 376.3 225 379.5C143.8 382.7 171.5 416.5 195.5 433H1349.5V1Z" stroke="#F9E6D6" stroke-width="7" stroke-linejoin="round"/>
<path d="M380 115.5C375.891 105 359.667 81.3333 348.5 71C348.5 93.8 356.5 123.5 364 132.5C369.27 138.824 376 137.389 380 132.5C382.864 129 382.935 123 380 115.5Z" fill="#F9E6D6"/>
<path d="M380 115.5C375.891 105 359.667 81.3333 348.5 71C348.5 93.8 356.5 123.5 364 132.5C369.27 138.824 376 137.389 380 132.5C382.864 129 382.935 123 380 115.5Z" stroke="#F9E6D6"/>
<path d="M380 115.5C375.891 105 359.667 81.3333 348.5 71C348.5 93.8 356.5 123.5 364 132.5C369.27 138.824 376 137.389 380 132.5C382.864 129 382.935 123 380 115.5Z" stroke="#F9E6D6"/>
<path d="M271.24 200.568C280.895 194.743 301.479 174.752 309.777 162C287.305 165.853 259.384 178.758 251.781 187.671C246.438 193.934 248.99 200.324 254.485 203.441C258.419 205.672 264.344 204.728 271.24 200.568Z" fill="#E6E0D4"/>
<path d="M202.178 410.409C213.326 408.721 239.992 398.123 252.536 389.514C230.299 384.479 199.566 385.722 189.132 391.05C181.799 394.793 181.713 401.674 185.598 406.655C188.379 410.22 194.215 411.615 202.178 410.409Z" fill="#E6E0D4"/>
<path d="M402.24 28.5676C411.895 22.7434 432.479 2.75241 440.777 -10C418.305 -6.14671 390.384 6.75764 382.781 15.6708C377.438 21.9343 379.99 28.3244 385.485 31.4406C389.419 33.6716 395.344 32.7277 402.24 28.5676Z" fill="#E6E0D4"/>
<path d="M321.033 330.445C312.964 322.57 288.432 307.687 274 302.871C283.391 323.647 302.915 347.415 313.456 352.527C320.864 356.119 326.405 352.039 328.036 345.936C329.203 341.567 326.797 336.071 321.033 330.445Z" fill="#F9E6D6" stroke="#F9E6D6"/>
<g filter="url(#filter0_f_21_3)">
<circle cx="1304.5" cy="44.5" r="139.5" fill="#E6E0D4"/>
<circle cx="1304.5" cy="44.5" r="139" stroke="#05697C"/>
</g>
<g filter="url(#filter1_f_21_3)">
<circle cx="1304.5" cy="428.5" r="139.5" fill="#E6E0D4"/>
<circle cx="1304.5" cy="428.5" r="139" stroke="#05697C"/>
</g>
<g filter="url(#filter2_f_21_3)">
<circle cx="855.5" cy="432.5" r="139.5" fill="#E6E0D4"/>
<circle cx="855.5" cy="432.5" r="139" stroke="#05697C"/>
</g>
<g filter="url(#filter3_f_21_3)">
<circle cx="494.5" cy="431.5" r="76.5" fill="#E6E0D4"/>
<circle cx="494.5" cy="431.5" r="76" stroke="#05697C"/>
</g>
<g filter="url(#filter4_f_21_3)">
<circle cx="982.5" cy="0.5" r="76.5" fill="#E6E0D4"/>
<circle cx="982.5" cy="0.5" r="76" stroke="#05697C"/>
</g>
<g filter="url(#filter5_f_21_3)">
<circle cx="642.5" cy="0.5" r="139.5" fill="#E6E0D4"/>
<circle cx="642.5" cy="0.5" r="139" stroke="#05697C"/>
</g>
<path d="M1219.07 83.7773C1219.45 83.2383 1219.69 82.6758 1219.81 82.0898C1219.95 81.457 1219.96 80.8477 1219.84 80.2617C1219.52 81.5742 1219.08 82.6172 1218.54 83.3906C1218.03 84.1406 1217.18 84.9023 1216.01 85.6758C1216.55 85.6055 1217.12 85.3945 1217.73 85.043C1218.25 84.7383 1218.7 84.3164 1219.07 83.7773ZM1203.74 84.9727C1204.21 84.8789 1204.77 84.8086 1205.43 84.7617C1206.11 84.7617 1206.71 84.7148 1207.22 84.6211C1206.73 84.4805 1206.13 84.3516 1205.43 84.2344C1204.84 84.1641 1204.23 84.1875 1203.6 84.3047C1202.88 84.4922 1202.3 84.7969 1201.88 85.2188C1201.43 85.6641 1201.19 86.2266 1201.14 86.9062C1201.52 86.2969 1201.88 85.8633 1202.23 85.6055C1202.63 85.3242 1203.13 85.1133 1203.74 84.9727ZM1203.81 56.3203C1204.26 55.8281 1204.83 55.3242 1205.54 54.8086C1206.64 54.0117 1208.01 53.3203 1209.65 52.7344C1210.8 52.3359 1212.3 51.9375 1214.15 51.5391C1213.56 51.5625 1212.78 51.6328 1211.79 51.75C1211.09 51.8672 1210.32 52.0312 1209.47 52.2422C1207.88 52.6875 1206.44 53.3672 1205.15 54.2812C1204.38 54.8438 1203.78 55.3828 1203.36 55.8984C1203.1 56.2031 1202.85 56.5195 1202.62 56.8477C1202.41 57.1523 1202.22 57.5273 1202.05 57.9727C1201.54 59.332 1201.28 60.8906 1201.28 62.6484L1201.53 61.4883C1201.6 61.0664 1201.68 60.6914 1201.77 60.3633C1201.98 59.5195 1202.24 58.7812 1202.55 58.1484C1202.71 57.7969 1202.9 57.4805 1203.11 57.1992C1203.34 56.8711 1203.58 56.5781 1203.81 56.3203ZM1216.71 65.7422C1217.89 65.8359 1219.06 66.0117 1220.23 66.2695C1223.79 67.0664 1226.75 68.5781 1229.09 70.8047C1231.29 72.8672 1232.75 75.3398 1233.45 78.2227C1234.15 81.082 1234.04 83.9297 1233.1 86.7656C1232.11 89.7188 1230.36 92.2852 1227.82 94.4648C1225.36 96.6211 1222.32 98.0156 1218.68 98.6484C1215.33 99.2109 1211.99 99.0938 1208.66 98.2969C1205.38 97.4766 1202.78 96.1523 1200.86 94.3242C1198.8 92.3555 1197.93 90.1289 1198.26 87.6445C1198.96 82.1836 1203.24 80.543 1211.09 82.7227C1212.57 83.1211 1213.69 83.2969 1214.46 83.25C1214.91 83.2031 1215.38 83.0391 1215.87 82.7578C1216.81 82.1719 1217.23 81.2344 1217.14 79.9453C1217.04 78.6094 1216.41 77.5781 1215.24 76.8516C1214.42 76.3359 1213.34 76.0195 1212 75.9023C1211.54 75.8789 1210.91 75.8555 1210.14 75.832H1209.19H1208.24C1206.67 75.7852 1205.38 75.5977 1204.38 75.2695C1203.02 74.8477 1201.86 74.0977 1200.89 73.0195C1199.32 71.2852 1198.54 68.4023 1198.54 64.3711C1198.54 60.3867 1199.29 57.3633 1200.79 55.3008C1203.16 52.0195 1207.04 49.9453 1212.43 49.0781C1216.71 48.375 1220.58 48.4805 1224.03 49.3945C1226.09 49.957 1227.6 50.9531 1228.56 52.3828C1229.43 53.6953 1229.71 55.1133 1229.41 56.6367C1229.15 58.1133 1228.41 59.2852 1227.19 60.1523C1225.88 61.0898 1224.32 61.3828 1222.52 61.0312C1218.11 60.2344 1214.86 60.3516 1212.78 61.3828C1212.1 61.7109 1211.62 62.2383 1211.34 62.9648C1211.03 63.6914 1211.05 64.2891 1211.41 64.7578C1211.76 65.25 1212.68 65.5195 1214.18 65.5664L1214.71 65.6016L1215.34 65.6367C1215.84 65.6602 1216.29 65.6953 1216.71 65.7422ZM1258.41 84.0938C1259.02 83.625 1259.52 82.9922 1259.92 82.1953C1260.65 80.6953 1260.82 79.1484 1260.45 77.5547C1260.24 79.3594 1259.85 80.8008 1259.29 81.8789C1258.59 83.3086 1257.57 84.3633 1256.23 85.043C1257 84.9492 1257.73 84.6328 1258.41 84.0938ZM1252.93 81.6328C1253.75 82.4062 1254.59 82.6641 1255.46 82.4062C1256.3 82.1484 1256.93 81.4453 1257.36 80.2969C1257.75 79.1719 1257.81 77.9297 1257.53 76.5703C1257.25 75.2109 1256.7 74.1562 1255.88 73.4062C1255.08 72.6328 1254.25 72.375 1253.38 72.6328C1252.52 72.8906 1251.87 73.5938 1251.45 74.7422C1251.05 75.8672 1250.99 77.1094 1251.27 78.4688C1251.55 79.8047 1252.11 80.8594 1252.93 81.6328ZM1241.89 62.4023C1242.66 60.2695 1243.56 58.4883 1244.59 57.0586C1245.79 55.3242 1247.23 53.9766 1248.92 53.0156C1250.51 52.125 1252.45 51.5977 1254.72 51.4336C1253.73 51.3633 1252.7 51.4102 1251.62 51.5742C1250.59 51.7852 1249.61 52.1133 1248.67 52.5586C1246.89 53.4258 1245.34 54.7852 1244.03 56.6367C1242.88 58.2773 1242 60.1523 1241.39 62.2617C1241.11 63.2461 1240.88 64.2422 1240.69 65.25C1240.5 66.4922 1240.4 67.5117 1240.38 68.3086C1240.77 66.1055 1241.28 64.1367 1241.89 62.4023ZM1243.08 53.9297C1246.95 49.4531 1252.12 47.8242 1258.59 49.043C1264.38 50.1445 1268.5 53.5898 1270.96 59.3789C1273.12 64.5117 1273.67 70.4766 1272.61 77.2734C1271.58 83.9062 1269.34 89.2969 1265.9 93.4453C1262.15 97.9922 1257.88 99.75 1253.1 98.7188C1247.99 97.6172 1243.97 94.1367 1241.04 88.2773C1238.35 82.8633 1237.15 76.8281 1237.46 70.1719C1237.79 63.3281 1239.66 57.9141 1243.08 53.9297ZM1308.61 56.6719C1309.62 55.3828 1310.51 54.375 1311.29 53.6484C1312.55 52.4297 1313.69 51.75 1314.7 51.6094C1314.13 51.6094 1313.48 51.7969 1312.73 52.1719C1312.35 52.4062 1312.06 52.5938 1311.85 52.7344L1311.46 53.0508L1311.04 53.3672C1310.24 54.0703 1309.29 55.043 1308.19 56.2852C1306.97 57.6914 1305.31 59.8477 1303.2 62.7539C1301.32 65.4023 1299.77 67.6289 1298.52 69.4336C1297.96 70.3008 1297.2 71.4141 1296.24 72.7734L1293.92 76.1133L1295.22 74.5664L1296.52 72.9844L1297.75 71.3672L1298.98 69.75C1299.71 68.8125 1300.52 67.7227 1301.41 66.4805L1303.8 63.1758C1305.88 60.2461 1307.49 58.0781 1308.61 56.6719ZM1311.78 49.5C1313.42 48.6328 1315 48.4805 1316.52 49.043C1319.52 50.168 1320.5 53.0742 1319.44 57.7617C1318.39 62.3086 1315.54 67.9922 1310.9 74.8125C1305.23 83.1094 1299.11 89.6133 1292.55 94.3242C1289.41 96.5742 1286.62 98.0156 1284.18 98.6484C1281.6 99.3281 1279.61 99.0352 1278.2 97.7695C1276.87 96.5742 1276.4 95.1562 1276.8 93.5156C1277.15 92.1094 1278.24 90.2578 1280.07 87.9609C1280.75 87.0938 1281.71 85.957 1282.95 84.5508L1283.76 83.6016L1284.6 82.6523C1285.35 81.7852 1285.95 81.0938 1286.39 80.5781C1289.54 76.9688 1292.17 73.7109 1294.3 70.8047C1295.29 69.4453 1296.48 67.7812 1297.89 65.8125L1298.73 64.6172L1299.54 63.457C1300.18 62.5664 1300.7 61.8281 1301.12 61.2422C1303.49 57.9375 1305.39 55.4766 1306.82 53.8594C1308.67 51.7266 1310.32 50.2734 1311.78 49.5ZM1283.76 51.75C1283.2 51.9609 1282.67 52.3125 1282.18 52.8047C1281.24 53.8125 1280.83 54.9492 1280.95 56.2148C1281.44 54.9961 1282.02 54.0234 1282.7 53.2969C1283.52 52.4297 1284.5 51.8672 1285.62 51.6094C1285.04 51.4453 1284.41 51.4922 1283.76 51.75ZM1289.17 63.7383C1287.32 65.0508 1285.34 65.4023 1283.23 64.793C1281.43 64.2773 1280.03 63.1406 1279.05 61.3828C1278.09 59.6719 1277.76 57.8086 1278.06 55.793C1278.34 53.7773 1279.21 52.0898 1280.66 50.7305C1282.12 49.3477 1283.78 48.668 1285.66 48.6914C1287.84 48.7383 1289.63 49.6641 1291.04 51.4688C1292.44 53.3203 1292.96 55.4883 1292.58 57.9727C1292.21 60.457 1291.07 62.3789 1289.17 63.7383ZM1314.52 88.4883C1315.04 87.2695 1315.63 86.3086 1316.31 85.6055C1317.13 84.7383 1318.11 84.1641 1319.23 83.8828C1318.64 83.7422 1318.02 83.7891 1317.37 84.0234C1316.8 84.2344 1316.28 84.5859 1315.79 85.0781C1314.85 86.1094 1314.43 87.2461 1314.52 88.4883ZM1314.27 83.0039C1315.73 81.6211 1317.39 80.9414 1319.27 80.9648C1321.45 81.0117 1323.23 81.9375 1324.61 83.7422C1326.04 85.5938 1326.57 87.7617 1326.19 90.2461C1325.82 92.7539 1324.68 94.6758 1322.78 96.0117C1320.93 97.3477 1318.95 97.7109 1316.84 97.1016C1315.04 96.5625 1313.64 95.4141 1312.66 93.6562C1311.7 91.9453 1311.36 90.082 1311.64 88.0664C1311.94 86.0508 1312.82 84.3633 1314.27 83.0039Z" fill="#05697C"/>
<path d="M1258.53 155H1254.52C1253.99 154.984 1253.55 154.805 1253.19 154.461C1252.84 154.102 1252.67 153.664 1252.67 153.148C1252.67 152.43 1253.02 151.883 1253.7 151.508C1253.95 151.383 1254.23 151.32 1254.52 151.32H1258.53C1259.52 151.32 1260.35 150.977 1261.04 150.289C1261.73 149.586 1262.07 148.75 1262.07 147.781V139.719C1262.07 138.734 1261.73 137.898 1261.04 137.211C1260.35 136.523 1259.52 136.18 1258.53 136.18C1256.69 136.18 1255.09 135.562 1253.73 134.328C1252.98 133.656 1252.38 132.859 1251.95 131.938C1251.52 131.016 1251.31 130.016 1251.31 128.938C1251.31 127.469 1251.62 126.195 1252.23 125.117C1252.9 123.945 1253.82 123.023 1254.99 122.352C1256.07 121.742 1257.25 121.438 1258.53 121.438H1261.72C1262.28 121.484 1262.72 121.664 1263.03 121.977C1263.39 122.336 1263.57 122.766 1263.57 123.266C1263.57 123.953 1263.27 124.484 1262.66 124.859C1262.47 124.969 1262.27 125.039 1262.05 125.07C1261.83 125.102 1260.66 125.117 1258.53 125.117C1257.56 125.117 1256.73 125.461 1256.02 126.148C1255.34 126.836 1254.99 127.672 1254.99 128.656V128.938C1254.99 129.922 1255.34 130.758 1256.02 131.445C1256.73 132.133 1257.56 132.477 1258.53 132.477C1260.38 132.477 1261.98 133.094 1263.36 134.328C1264.09 135 1264.67 135.797 1265.09 136.719C1265.53 137.641 1265.75 138.641 1265.75 139.719V147.781C1265.75 149.062 1265.45 150.242 1264.84 151.32C1264.16 152.492 1263.24 153.406 1262.07 154.062C1261.01 154.688 1259.83 155 1258.53 155ZM1286.61 155C1285.75 155 1285.16 154.547 1284.83 153.641L1283.21 147.477H1274.26L1272.64 153.641C1272.31 154.547 1271.72 155 1270.86 155C1270.7 155 1270.55 154.984 1270.39 154.953C1269.48 154.625 1269.03 154.031 1269.03 153.172C1269.03 152.969 1271.66 142.883 1276.93 122.914C1277.1 122.211 1277.55 121.742 1278.27 121.508C1278.44 121.477 1278.6 121.461 1278.76 121.461C1279.59 121.461 1280.18 121.93 1280.54 122.867C1285.8 142.867 1288.44 152.969 1288.44 153.172C1288.44 154.031 1287.98 154.625 1287.08 154.953C1286.91 154.984 1286.75 155 1286.61 155ZM1282.23 143.797L1278.73 130.508L1275.22 143.797H1282.23ZM1300.46 155C1300.1 155 1299.77 154.906 1299.48 154.719C1299.1 154.531 1298.85 154.172 1298.73 153.641L1290.8 123.969C1290.73 123.719 1290.69 123.477 1290.69 123.242C1290.69 122.508 1291.05 121.945 1291.79 121.555C1292.04 121.477 1292.28 121.438 1292.52 121.438C1293.12 121.438 1293.64 121.711 1294.06 122.258C1294.11 122.367 1296.25 130.289 1300.48 146.023L1306.53 122.797C1306.58 122.547 1306.68 122.328 1306.84 122.141C1307.24 121.672 1307.72 121.438 1308.27 121.438C1308.48 121.438 1308.73 121.477 1308.99 121.555C1309.73 121.914 1310.09 122.477 1310.09 123.242C1310.09 123.477 1310.06 123.719 1310 123.969L1302.31 153.477C1302.16 154.492 1301.54 155 1300.46 155ZM1323.15 155H1315.6C1315.12 154.938 1314.72 154.734 1314.41 154.391C1314.09 154.047 1313.94 153.633 1313.94 153.148V123.266C1313.94 122.797 1314.09 122.391 1314.41 122.047C1314.72 121.688 1315.12 121.484 1315.6 121.438H1323.15C1323.65 121.438 1324.08 121.617 1324.44 121.977C1324.8 122.336 1324.98 122.766 1324.98 123.266C1324.98 123.781 1324.8 124.219 1324.44 124.578C1324.08 124.938 1323.65 125.117 1323.15 125.117H1317.62V130.719H1322C1322.52 130.719 1322.95 130.898 1323.31 131.258C1323.67 131.617 1323.85 132.055 1323.85 132.57C1323.85 133.07 1323.67 133.5 1323.31 133.859C1322.95 134.219 1322.52 134.398 1322 134.398H1317.62V151.32H1323.15C1323.65 151.32 1324.08 151.5 1324.44 151.859C1324.8 152.219 1324.98 152.648 1324.98 153.148C1324.98 153.664 1324.8 154.102 1324.44 154.461C1324.08 154.82 1323.65 155 1323.15 155Z" fill="#05697C"/>
</g>
<defs>
<filter id="filter0_f_21_3" x="1161" y="-99" width="287" height="287" filterUnits="userSpaceOnUse" color-interpolation-filters="sRGB">
<feFlood flood-opacity="0" result="BackgroundImageFix"/>
<feBlend mode="normal" in="SourceGraphic" in2="BackgroundImageFix" result="shape"/>
<feGaussianBlur stdDeviation="2" result="effect1_foregroundBlur_21_3"/>
</filter>
<filter id="filter1_f_21_3" x="1161" y="285" width="287" height="287" filterUnits="userSpaceOnUse" color-interpolation-filters="sRGB">
<feFlood flood-opacity="0" result="BackgroundImageFix"/>
<feBlend mode="normal" in="SourceGraphic" in2="BackgroundImageFix" result="shape"/>
<feGaussianBlur stdDeviation="2" result="effect1_foregroundBlur_21_3"/>
</filter>
<filter id="filter2_f_21_3" x="712" y="289" width="287" height="287" filterUnits="userSpaceOnUse" color-interpolation-filters="sRGB">
<feFlood flood-opacity="0" result="BackgroundImageFix"/>
<feBlend mode="normal" in="SourceGraphic" in2="BackgroundImageFix" result="shape"/>
<feGaussianBlur stdDeviation="2" result="effect1_foregroundBlur_21_3"/>
</filter>
<filter id="filter3_f_21_3" x="414" y="351" width="161" height="161" filterUnits="userSpaceOnUse" color-interpolation-filters="sRGB">
<feFlood flood-opacity="0" result="BackgroundImageFix"/>
<feBlend mode="normal" in="SourceGraphic" in2="BackgroundImageFix" result="shape"/>
<feGaussianBlur stdDeviation="2" result="effect1_foregroundBlur_21_3"/>
</filter>
<filter id="filter4_f_21_3" x="902" y="-80" width="161" height="161" filterUnits="userSpaceOnUse" color-interpolation-filters="sRGB">
<feFlood flood-opacity="0" result="BackgroundImageFix"/>
<feBlend mode="normal" in="SourceGraphic" in2="BackgroundImageFix" result="shape"/>
<feGaussianBlur stdDeviation="2" result="effect1_foregroundBlur_21_3"/>
</filter>
<filter id="filter5_f_21_3" x="499" y="-143" width="287" height="287" filterUnits="userSpaceOnUse" color-interpolation-filters="sRGB">
<feFlood flood-opacity="0" result="BackgroundImageFix"/>
<feBlend mode="normal" in="SourceGraphic" in2="BackgroundImageFix" result="shape"/>
<feGaussianBlur stdDeviation="2" result="effect1_foregroundBlur_21_3"/>
</filter>
<clipPath id="clip0_21_3">
<rect width="1346" height="432" rx="10" fill="white"/>
</clipPath>
</defs>
</svg>
