<svg width="21" height="19" viewBox="0 0 21 19" fill="none" xmlns="http://www.w3.org/2000/svg">
<path fill-rule="evenodd" clip-rule="evenodd" d="M2.90028 0H18.0998C18.6115 0 19.0407 0.386368 19.0943 0.895315L20.8837 17.8953C20.9459 18.4858 20.4829 19 19.8892 19H1.1108C0.517102 19 0.0541452 18.4858 0.116297 17.8953L1.90577 0.895314C1.95934 0.386367 2.38852 0 2.90028 0ZM6.94722 2.10557C6.45324 1.85858 5.85257 2.05881 5.60558 2.55279C5.3586 3.04677 5.55883 3.64744 6.0528 3.89443L6.47112 4.10359C6.46401 5.06364 6.60675 6.26464 7.06977 7.33464C7.36634 8.01999 7.81241 8.6925 8.47553 9.19528C9.15088 9.70735 9.99524 10 11 10C12.0048 10 12.8492 9.70735 13.5245 9.19528C14.1876 8.69249 14.6337 8.01998 14.9303 7.33464C15.3933 6.26464 15.536 5.06364 15.5289 4.10358L15.9472 3.89443C16.4412 3.64744 16.6414 3.04676 16.3944 2.55279C16.1475 2.05881 15.5468 1.85858 15.0528 2.10557L14.0528 2.60557L13.4423 2.91081L13.5041 3.59054C13.5781 4.40377 13.5029 5.59719 13.0948 6.54036C12.8955 7.00085 12.6353 7.35959 12.3162 7.60159C12.0092 7.83432 11.5952 8 11 8C10.4048 8 9.99084 7.83432 9.6839 7.60159C9.36472 7.35959 9.10455 7.00085 8.90528 6.54036C8.49715 5.59719 8.42199 4.40377 8.49592 3.59054L8.55771 2.91081L7.94724 2.60557L6.94722 2.10557Z" fill="white"/>
</svg>
