<svg width="25" height="24" viewBox="0 0 25 24" fill="none" xmlns="http://www.w3.org/2000/svg">
<path d="M13.7258 0.776356L16.514 6.3666C16.7151 6.77327 17.1074 7.05626 17.5624 7.12292L23.808 8.03271C24.1752 8.08421 24.5064 8.27739 24.7282 8.5695C24.9501 8.86162 25.0444 9.22859 24.9902 9.58921C24.947 9.8881 24.8061 10.1651 24.5887 10.3784L20.0607 14.7629C19.729 15.0729 19.5781 15.526 19.6591 15.9687L20.7744 22.1398C20.8976 22.8781 20.4051 23.58 19.6591 23.7292C19.3539 23.7772 19.041 23.7272 18.7669 23.5867L13.1905 20.682C12.7775 20.4732 12.2874 20.4732 11.8744 20.682L6.29797 23.5867C5.61107 23.952 4.75292 23.702 4.37967 23.0277C4.23823 22.7578 4.18748 22.4508 4.23468 22.1508L5.34997 15.9796C5.43098 15.5369 5.28011 15.0838 4.94846 14.7739L0.420384 10.3894C0.154738 10.1319 0.00518799 9.78051 0.00518799 9.41382C0.00518799 9.04714 0.154738 8.69575 0.420384 8.43827C0.634385 8.22052 0.917744 8.08128 1.22339 8.04367L7.46902 7.13388C7.92405 7.06723 8.31632 6.78423 8.51739 6.37756L11.2052 0.776356C11.4403 0.298576 11.9368 -0.00105246 12.4767 0.00906817H12.644C13.1138 0.0676427 13.5212 0.356607 13.7258 0.776356Z" fill="white"/>
</svg>
